G04 (created by PCBNEW (2013-07-07 BZR 4022)-stable) date 21/11/2014 19:41:42*
%MOIN*%
G04 Gerber Fmt 3.4, Leading zero omitted, Abs format*
%FSLAX34Y34*%
G01*
G70*
G90*
G04 APERTURE LIST*
%ADD10C,0.008*%
%ADD11R,0.122299X0.0789921*%
%ADD12C,0.0750551*%
%ADD13R,0.0711181X0.031748*%
%ADD14R,0.0888346X0.0888346*%
%ADD15R,0.0888346X0.106551*%
%ADD16C,0.086*%
%ADD17R,0.032X0.066*%
%ADD18R,0.0436X0.0554*%
%ADD19R,0.046X0.036*%
%ADD20R,0.0554X0.0475*%
%ADD21R,0.066X0.041*%
%ADD22R,0.076X0.096*%
%ADD23R,0.096X0.076*%
%ADD24R,0.041X0.061*%
%ADD25R,0.076X0.076*%
%ADD26C,0.076*%
%ADD27C,0.106*%
%ADD28R,0.101X0.101*%
%ADD29C,0.082*%
%ADD30R,0.0711181X0.141984*%
%ADD31R,0.106X0.078*%
%ADD32O,0.106X0.078*%
%ADD33R,0.100646X0.264031*%
%ADD34R,0.1341X0.079*%
%ADD35R,0.087X0.079*%
%ADD36R,0.079X0.087*%
%ADD37C,0.101*%
%ADD38C,0.17348*%
%ADD39C,0.0593071*%
%ADD40R,0.0711181X0.0789921*%
%ADD41R,0.0789921X0.0711181*%
%ADD42R,0.071X0.071*%
%ADD43C,0.071*%
G04 APERTURE END LIST*
G54D10*
G54D11*
X49700Y-49790D03*
X49700Y-48609D03*
G54D12*
X68893Y-41584D03*
X66972Y-41584D03*
G54D13*
X37662Y-39350D03*
X37662Y-39605D03*
X37662Y-39861D03*
X37662Y-39094D03*
X37662Y-38838D03*
G54D14*
X36540Y-39822D03*
X36540Y-38897D03*
G54D15*
X36540Y-40846D03*
X36540Y-37873D03*
G54D16*
X72000Y-36150D03*
X74000Y-36150D03*
X75000Y-36150D03*
X76000Y-36150D03*
X77000Y-36150D03*
X77000Y-38150D03*
X76000Y-38150D03*
X75000Y-38150D03*
X74000Y-38150D03*
X72000Y-38150D03*
X71900Y-44900D03*
X73900Y-44900D03*
X74900Y-44900D03*
X75900Y-44900D03*
X76900Y-44900D03*
X76900Y-46900D03*
X75900Y-46900D03*
X74900Y-46900D03*
X73900Y-46900D03*
X71900Y-46900D03*
G54D17*
X48750Y-39170D03*
X48500Y-39170D03*
X48240Y-39170D03*
X47980Y-39170D03*
X47730Y-39170D03*
X47470Y-39170D03*
X47210Y-39170D03*
X46960Y-39170D03*
X46700Y-39170D03*
X46450Y-39170D03*
X46450Y-41270D03*
X46700Y-41270D03*
X46960Y-41270D03*
X47210Y-41270D03*
X47470Y-41270D03*
X47730Y-41270D03*
X47980Y-41270D03*
X48240Y-41270D03*
X48500Y-41270D03*
X48750Y-41270D03*
G54D18*
X52725Y-46250D03*
X52350Y-46250D03*
X51975Y-46250D03*
X51975Y-45250D03*
X52350Y-45250D03*
X52725Y-45250D03*
G54D19*
X44475Y-43850D03*
X44475Y-43100D03*
X43475Y-43850D03*
X44475Y-43475D03*
X43475Y-43100D03*
G54D20*
X70108Y-38525D03*
X69242Y-38900D03*
X69242Y-38150D03*
X70108Y-36625D03*
X69242Y-37000D03*
X69242Y-36250D03*
X68346Y-46062D03*
X67480Y-46437D03*
X67480Y-45687D03*
X68336Y-44330D03*
X67470Y-44705D03*
X67470Y-43955D03*
G54D21*
X44480Y-49510D03*
X44480Y-49010D03*
X44480Y-48510D03*
X44480Y-48010D03*
X42280Y-48010D03*
X42280Y-48510D03*
X42280Y-49010D03*
X42280Y-49510D03*
G54D22*
X64162Y-45511D03*
X65462Y-45511D03*
X54050Y-47200D03*
X55350Y-47200D03*
X54050Y-45700D03*
X55350Y-45700D03*
X67800Y-35025D03*
X66500Y-35025D03*
X43525Y-41575D03*
X42225Y-41575D03*
X66500Y-36575D03*
X67800Y-36575D03*
X66500Y-38300D03*
X67800Y-38300D03*
X43525Y-39350D03*
X42225Y-39350D03*
X64182Y-43799D03*
X65482Y-43799D03*
X49250Y-44350D03*
X50550Y-44350D03*
G54D23*
X61820Y-31320D03*
X61820Y-30020D03*
G54D24*
X42975Y-36000D03*
X42375Y-36000D03*
G54D25*
X39450Y-28000D03*
G54D16*
X40450Y-28000D03*
X39450Y-29000D03*
X40450Y-29000D03*
X39450Y-30000D03*
X40450Y-30000D03*
X39450Y-31000D03*
X40450Y-31000D03*
G54D25*
X60900Y-50600D03*
G54D16*
X60900Y-51600D03*
X59900Y-50600D03*
X59900Y-51600D03*
X58900Y-50600D03*
X58900Y-51600D03*
G54D25*
X52760Y-29110D03*
G54D16*
X52760Y-28110D03*
X53760Y-29110D03*
X53760Y-28110D03*
X54760Y-29110D03*
X54760Y-28110D03*
G54D25*
X42440Y-45900D03*
G54D26*
X43440Y-45900D03*
G54D27*
X80000Y-39390D03*
X80000Y-37422D03*
X80000Y-35453D03*
X80000Y-33485D03*
X80000Y-31516D03*
X80000Y-41359D03*
X80000Y-43327D03*
X80000Y-45296D03*
X80000Y-47264D03*
X80000Y-49233D03*
X80000Y-29548D03*
G54D28*
X80000Y-51201D03*
G54D25*
X54050Y-51500D03*
X36850Y-44750D03*
X44450Y-52050D03*
G54D29*
X58070Y-29990D03*
X58070Y-28990D03*
G54D30*
X77464Y-40900D03*
X75535Y-40900D03*
X72010Y-40925D03*
X73939Y-40925D03*
X77514Y-49500D03*
X75585Y-49500D03*
X71785Y-49500D03*
X73714Y-49500D03*
G54D31*
X53300Y-40300D03*
G54D32*
X53300Y-41300D03*
X53300Y-42300D03*
X53300Y-43300D03*
X56300Y-43300D03*
X56300Y-42300D03*
X56300Y-41300D03*
X56300Y-40300D03*
X61400Y-45900D03*
X61400Y-44900D03*
X61400Y-43900D03*
X61400Y-42900D03*
X61400Y-41900D03*
X61400Y-40900D03*
X61400Y-39900D03*
X61400Y-38900D03*
X61400Y-37900D03*
X61400Y-36900D03*
X61400Y-35900D03*
X61400Y-34900D03*
X61400Y-33900D03*
G54D31*
X61400Y-46900D03*
G54D32*
X58400Y-33900D03*
X58400Y-34900D03*
X58400Y-35900D03*
X58400Y-36900D03*
X58400Y-37900D03*
X58400Y-38900D03*
X58400Y-39900D03*
X58400Y-40900D03*
X58400Y-41900D03*
X58400Y-42900D03*
X58400Y-43900D03*
X58400Y-44900D03*
X58400Y-45900D03*
X58400Y-46900D03*
G54D33*
X45973Y-46100D03*
X47626Y-46100D03*
G54D34*
X41291Y-35200D03*
X39559Y-35200D03*
G54D35*
X64550Y-38850D03*
X64550Y-37750D03*
X64550Y-40000D03*
X64550Y-41100D03*
G54D36*
X55400Y-37750D03*
X54300Y-37750D03*
X49275Y-43025D03*
X50375Y-43025D03*
X47300Y-35850D03*
X46200Y-35850D03*
X47300Y-37000D03*
X46200Y-37000D03*
X42325Y-37025D03*
X43425Y-37025D03*
X42300Y-38225D03*
X43400Y-38225D03*
X42300Y-40475D03*
X43400Y-40475D03*
G54D35*
X47700Y-49875D03*
X47700Y-48775D03*
X46175Y-49875D03*
X46175Y-48775D03*
G54D36*
X55450Y-36275D03*
X54350Y-36275D03*
G54D37*
X36850Y-49500D03*
X36850Y-47500D03*
G54D11*
X52350Y-48634D03*
X52350Y-49815D03*
G54D38*
X37007Y-27559D03*
X81102Y-27559D03*
X81102Y-52755D03*
X37007Y-52755D03*
G54D22*
X68582Y-49478D03*
X69882Y-49478D03*
X69872Y-51525D03*
X68572Y-51525D03*
G54D39*
X65344Y-52696D03*
X65344Y-49940D03*
G54D40*
X64005Y-52145D03*
X66683Y-52145D03*
G54D41*
X65344Y-48602D03*
G54D40*
X66466Y-48956D03*
X64222Y-48937D03*
G54D42*
X66875Y-30950D03*
G54D43*
X66875Y-29950D03*
X67875Y-29950D03*
M02*
