G04 (created by PCBNEW (2013-07-07 BZR 4022)-stable) date 21/11/2014 19:41:42*
%MOIN*%
G04 Gerber Fmt 3.4, Leading zero omitted, Abs format*
%FSLAX34Y34*%
G01*
G70*
G90*
G04 APERTURE LIST*
%ADD10C,0.008*%
%ADD11C,0.0750551*%
%ADD12C,0.086*%
%ADD13R,0.076X0.076*%
%ADD14C,0.076*%
%ADD15C,0.106*%
%ADD16R,0.101X0.101*%
%ADD17C,0.082*%
%ADD18R,0.106X0.078*%
%ADD19O,0.106X0.078*%
%ADD20C,0.101*%
%ADD21C,0.17348*%
%ADD22C,0.0593071*%
%ADD23R,0.0711181X0.0789921*%
%ADD24R,0.0789921X0.0711181*%
%ADD25R,0.071X0.071*%
%ADD26C,0.071*%
G04 APERTURE END LIST*
G54D10*
G54D11*
X68893Y-41584D03*
X66972Y-41584D03*
G54D12*
X72000Y-36150D03*
X74000Y-36150D03*
X75000Y-36150D03*
X76000Y-36150D03*
X77000Y-36150D03*
X77000Y-38150D03*
X76000Y-38150D03*
X75000Y-38150D03*
X74000Y-38150D03*
X72000Y-38150D03*
X71900Y-44900D03*
X73900Y-44900D03*
X74900Y-44900D03*
X75900Y-44900D03*
X76900Y-44900D03*
X76900Y-46900D03*
X75900Y-46900D03*
X74900Y-46900D03*
X73900Y-46900D03*
X71900Y-46900D03*
G54D13*
X39450Y-28000D03*
G54D12*
X40450Y-28000D03*
X39450Y-29000D03*
X40450Y-29000D03*
X39450Y-30000D03*
X40450Y-30000D03*
X39450Y-31000D03*
X40450Y-31000D03*
G54D13*
X60900Y-50600D03*
G54D12*
X60900Y-51600D03*
X59900Y-50600D03*
X59900Y-51600D03*
X58900Y-50600D03*
X58900Y-51600D03*
G54D13*
X52760Y-29110D03*
G54D12*
X52760Y-28110D03*
X53760Y-29110D03*
X53760Y-28110D03*
X54760Y-29110D03*
X54760Y-28110D03*
G54D13*
X42440Y-45900D03*
G54D14*
X43440Y-45900D03*
G54D15*
X80000Y-39390D03*
X80000Y-37422D03*
X80000Y-35453D03*
X80000Y-33485D03*
X80000Y-31516D03*
X80000Y-41359D03*
X80000Y-43327D03*
X80000Y-45296D03*
X80000Y-47264D03*
X80000Y-49233D03*
X80000Y-29548D03*
G54D16*
X80000Y-51201D03*
G54D13*
X54050Y-51500D03*
X36850Y-44750D03*
X44450Y-52050D03*
G54D17*
X58070Y-29990D03*
X58070Y-28990D03*
G54D18*
X53300Y-40300D03*
G54D19*
X53300Y-41300D03*
X53300Y-42300D03*
X53300Y-43300D03*
X56300Y-43300D03*
X56300Y-42300D03*
X56300Y-41300D03*
X56300Y-40300D03*
X61400Y-45900D03*
X61400Y-44900D03*
X61400Y-43900D03*
X61400Y-42900D03*
X61400Y-41900D03*
X61400Y-40900D03*
X61400Y-39900D03*
X61400Y-38900D03*
X61400Y-37900D03*
X61400Y-36900D03*
X61400Y-35900D03*
X61400Y-34900D03*
X61400Y-33900D03*
G54D18*
X61400Y-46900D03*
G54D19*
X58400Y-33900D03*
X58400Y-34900D03*
X58400Y-35900D03*
X58400Y-36900D03*
X58400Y-37900D03*
X58400Y-38900D03*
X58400Y-39900D03*
X58400Y-40900D03*
X58400Y-41900D03*
X58400Y-42900D03*
X58400Y-43900D03*
X58400Y-44900D03*
X58400Y-45900D03*
X58400Y-46900D03*
G54D20*
X36850Y-49500D03*
X36850Y-47500D03*
G54D21*
X37007Y-27559D03*
X81102Y-27559D03*
X81102Y-52755D03*
X37007Y-52755D03*
G54D22*
X65344Y-52696D03*
X65344Y-49940D03*
G54D23*
X64005Y-52145D03*
X66683Y-52145D03*
G54D24*
X65344Y-48602D03*
G54D23*
X66466Y-48956D03*
X64222Y-48937D03*
G54D25*
X66875Y-30950D03*
G54D26*
X66875Y-29950D03*
X67875Y-29950D03*
M02*
