M48
;DRILL file {Pcbnew (2013-07-07 BZR 4022)-stable} date 19/11/2014 16:17:34
;FORMAT={-:-/ absolute / inch / decimal}
FMAT,2
INCH,TZ
T1C0.025
T2C0.028
T3C0.032
T4C0.039
T5C0.040
T6C0.043
T7C0.047
T8C0.052
T9C0.118
%
G90
G05
M72
T1
X3.872Y-3.355
X3.945Y-3.314
X4.045Y-3.245
X4.315Y-2.9
X4.315Y-3.445
X4.57Y-4.18
X4.575Y-5.235
X4.855Y-3.5925
X4.88Y-3.885
X5.1475Y-4.3325
X5.276Y-3.313
X5.323Y-3.001
X5.327Y-3.546
X5.377Y-3.155
X5.476Y-3.092
X5.4975Y-3.865
X5.505Y-4.9725
X5.6275Y-3.6275
X5.6275Y-3.89
X5.628Y-2.801
X5.63Y-4.5675
X5.6925Y-4.695
X5.7175Y-3.69
X5.7175Y-3.7775
X5.7175Y-3.99
X5.72Y-3.31
X5.9275Y-3.17
X5.945Y-4.8575
X5.9875Y-3.245
X5.9875Y-4.39
X5.9875Y-4.59
X6.04Y-3.093
X6.09Y-4.8575
X6.25Y-5.24
X6.2525Y-4.49
X7.29Y-4.8575
X7.295Y-3.9875
X7.3925Y-4.335
X7.4Y-3.9175
X7.4025Y-3.15
X7.5Y-3.9825
X7.5025Y-3.3475
X7.59Y-4.24
X7.6Y-2.955
X7.6Y-3.7025
X7.67Y-4.915
X7.675Y-4.055
X7.84Y-3.7025
X7.8425Y-3.55
X7.8425Y-3.7925
X7.8425Y-3.9175
T2
X6.6972Y-4.1585
X6.8894Y-4.1585
T3
X5.33Y-4.03
X5.33Y-4.13
X5.33Y-4.23
X5.33Y-4.33
X5.63Y-4.03
X5.63Y-4.13
X5.63Y-4.23
X5.63Y-4.33
X5.807Y-2.899
X5.807Y-2.999
X5.84Y-3.39
X5.84Y-3.49
X5.84Y-3.59
X5.84Y-3.69
X5.84Y-3.79
X5.84Y-3.89
X5.84Y-3.99
X5.84Y-4.09
X5.84Y-4.19
X5.84Y-4.29
X5.84Y-4.39
X5.84Y-4.49
X5.84Y-4.59
X5.84Y-4.69
X6.14Y-3.39
X6.14Y-3.49
X6.14Y-3.59
X6.14Y-3.69
X6.14Y-3.79
X6.14Y-3.89
X6.14Y-3.99
X6.14Y-4.09
X6.14Y-4.19
X6.14Y-4.29
X6.14Y-4.39
X6.14Y-4.49
X6.14Y-4.59
X6.14Y-4.69
X6.6875Y-2.995
X6.6875Y-3.095
X6.7875Y-2.995
T4
X7.19Y-4.49
X7.19Y-4.69
X7.2Y-3.615
X7.2Y-3.815
X7.39Y-4.49
X7.39Y-4.69
X7.4Y-3.615
X7.4Y-3.815
X7.49Y-4.49
X7.49Y-4.69
X7.5Y-3.615
X7.5Y-3.815
X7.59Y-4.49
X7.59Y-4.69
X7.6Y-3.615
X7.6Y-3.815
X7.69Y-4.49
X7.69Y-4.69
X7.7Y-3.615
X7.7Y-3.815
T5
X3.685Y-4.475
X3.945Y-2.8
X3.945Y-2.9
X3.945Y-3.
X3.945Y-3.1
X4.045Y-2.8
X4.045Y-2.9
X4.045Y-3.
X4.045Y-3.1
X4.244Y-4.59
X4.344Y-4.59
X4.445Y-5.205
X5.276Y-2.811
X5.276Y-2.911
X5.376Y-2.811
X5.376Y-2.911
X5.405Y-5.15
X5.476Y-2.811
X5.476Y-2.911
X5.89Y-5.06
X5.89Y-5.16
X5.99Y-5.06
X5.99Y-5.16
X6.09Y-5.06
X6.09Y-5.16
T6
X6.5344Y-4.9941
X6.5344Y-5.2697
T7
X6.4006Y-5.2146
X6.4222Y-4.8937
X6.5344Y-4.8602
X6.6467Y-4.8957
X6.6683Y-5.2146
T8
X3.685Y-4.75
X3.685Y-4.95
X8.Y-2.9548
X8.Y-3.1517
X8.Y-3.3485
X8.Y-3.5454
X8.Y-3.7422
X8.Y-3.9391
X8.Y-4.1359
X8.Y-4.3328
X8.Y-4.5296
X8.Y-4.7265
X8.Y-4.9233
X8.Y-5.1202
T9
X3.7008Y-2.7559
X3.7008Y-5.2756
X8.1102Y-2.7559
X8.1102Y-5.2756
T0
M30
