G04 (created by PCBNEW (2013-07-07 BZR 4022)-stable) date 21/11/2014 19:41:42*
%MOIN*%
G04 Gerber Fmt 3.4, Leading zero omitted, Abs format*
%FSLAX34Y34*%
G01*
G70*
G90*
G04 APERTURE LIST*
%ADD10C,0.008*%
%ADD11C,0.00787402*%
%ADD12C,0.011811*%
%ADD13C,0.00590551*%
%ADD14C,0.0065*%
%ADD15C,0.006*%
%ADD16C,0.005*%
%ADD17C,0.0031*%
%ADD18C,0.012*%
%ADD19C,0.003*%
%ADD20C,0.01*%
%ADD21C,0.015*%
%ADD22C,0.0047*%
%ADD23C,0.0059*%
%ADD24C,0.0045*%
%ADD25C,0.0035*%
%ADD26C,0.01125*%
G04 APERTURE END LIST*
G54D10*
X61014Y-49931D02*
X60785Y-49931D01*
X60900Y-49931D02*
X60900Y-49531D01*
X60861Y-49589D01*
X60823Y-49627D01*
X60785Y-49646D01*
X59474Y-49677D02*
X59665Y-49677D01*
X59436Y-49791D02*
X59570Y-49391D01*
X59703Y-49791D01*
X59836Y-49391D02*
X59836Y-49715D01*
X59855Y-49753D01*
X59874Y-49772D01*
X59912Y-49791D01*
X59989Y-49791D01*
X60027Y-49772D01*
X60046Y-49753D01*
X60065Y-49715D01*
X60065Y-49391D01*
X60217Y-49391D02*
X60484Y-49791D01*
X60484Y-49391D02*
X60217Y-49791D01*
X38258Y-28134D02*
X38258Y-27905D01*
X38258Y-28020D02*
X38658Y-28020D01*
X38600Y-27981D01*
X38562Y-27943D01*
X38543Y-27905D01*
X52844Y-30141D02*
X52615Y-30141D01*
X52730Y-30141D02*
X52730Y-29741D01*
X52691Y-29799D01*
X52653Y-29837D01*
X52615Y-29856D01*
X53169Y-30271D02*
X53169Y-29871D01*
X53588Y-30233D02*
X53569Y-30252D01*
X53512Y-30271D01*
X53474Y-30271D01*
X53417Y-30252D01*
X53379Y-30214D01*
X53360Y-30176D01*
X53340Y-30100D01*
X53340Y-30043D01*
X53360Y-29967D01*
X53379Y-29929D01*
X53417Y-29890D01*
X53474Y-29871D01*
X53512Y-29871D01*
X53569Y-29890D01*
X53588Y-29910D01*
X53740Y-30252D02*
X53798Y-30271D01*
X53893Y-30271D01*
X53931Y-30252D01*
X53950Y-30233D01*
X53969Y-30195D01*
X53969Y-30157D01*
X53950Y-30119D01*
X53931Y-30100D01*
X53893Y-30081D01*
X53817Y-30062D01*
X53779Y-30043D01*
X53760Y-30024D01*
X53740Y-29986D01*
X53740Y-29948D01*
X53760Y-29910D01*
X53779Y-29890D01*
X53817Y-29871D01*
X53912Y-29871D01*
X53969Y-29890D01*
X54140Y-30271D02*
X54140Y-29871D01*
X54293Y-29871D01*
X54331Y-29890D01*
X54350Y-29910D01*
X54369Y-29948D01*
X54369Y-30005D01*
X54350Y-30043D01*
X54331Y-30062D01*
X54293Y-30081D01*
X54140Y-30081D01*
G54D11*
X47188Y-52093D02*
X47250Y-52114D01*
X47353Y-52114D01*
X47395Y-52093D01*
X47415Y-52073D01*
X47436Y-52031D01*
X47436Y-51990D01*
X47415Y-51949D01*
X47395Y-51928D01*
X47353Y-51908D01*
X47271Y-51887D01*
X47230Y-51866D01*
X47209Y-51846D01*
X47188Y-51804D01*
X47188Y-51763D01*
X47209Y-51722D01*
X47230Y-51701D01*
X47271Y-51681D01*
X47374Y-51681D01*
X47436Y-51701D01*
X47621Y-52114D02*
X47621Y-51825D01*
X47621Y-51866D02*
X47642Y-51846D01*
X47683Y-51825D01*
X47745Y-51825D01*
X47786Y-51846D01*
X47807Y-51887D01*
X47807Y-52114D01*
X47807Y-51887D02*
X47828Y-51846D01*
X47869Y-51825D01*
X47931Y-51825D01*
X47972Y-51846D01*
X47993Y-51887D01*
X47993Y-52114D01*
X48384Y-52114D02*
X48384Y-51887D01*
X48364Y-51846D01*
X48323Y-51825D01*
X48240Y-51825D01*
X48199Y-51846D01*
X48384Y-52093D02*
X48343Y-52114D01*
X48240Y-52114D01*
X48199Y-52093D01*
X48178Y-52052D01*
X48178Y-52011D01*
X48199Y-51969D01*
X48240Y-51949D01*
X48343Y-51949D01*
X48384Y-51928D01*
X48591Y-52114D02*
X48591Y-51825D01*
X48591Y-51908D02*
X48611Y-51866D01*
X48632Y-51846D01*
X48673Y-51825D01*
X48714Y-51825D01*
X48797Y-51825D02*
X48962Y-51825D01*
X48859Y-51681D02*
X48859Y-52052D01*
X48879Y-52093D01*
X48921Y-52114D01*
X48962Y-52114D01*
X49436Y-52114D02*
X49436Y-51681D01*
X49684Y-52114D01*
X49684Y-51681D01*
X49952Y-52114D02*
X49910Y-52093D01*
X49890Y-52073D01*
X49869Y-52031D01*
X49869Y-51908D01*
X49890Y-51866D01*
X49910Y-51846D01*
X49952Y-51825D01*
X50014Y-51825D01*
X50055Y-51846D01*
X50075Y-51866D01*
X50096Y-51908D01*
X50096Y-52031D01*
X50075Y-52073D01*
X50055Y-52093D01*
X50014Y-52114D01*
X49952Y-52114D01*
X50467Y-52114D02*
X50467Y-51681D01*
X50467Y-52093D02*
X50426Y-52114D01*
X50344Y-52114D01*
X50302Y-52093D01*
X50282Y-52073D01*
X50261Y-52031D01*
X50261Y-51908D01*
X50282Y-51866D01*
X50302Y-51846D01*
X50344Y-51825D01*
X50426Y-51825D01*
X50467Y-51846D01*
X50838Y-52093D02*
X50797Y-52114D01*
X50715Y-52114D01*
X50673Y-52093D01*
X50653Y-52052D01*
X50653Y-51887D01*
X50673Y-51846D01*
X50715Y-51825D01*
X50797Y-51825D01*
X50838Y-51846D01*
X50859Y-51887D01*
X50859Y-51928D01*
X50653Y-51969D01*
X47188Y-52407D02*
X47209Y-52386D01*
X47250Y-52366D01*
X47353Y-52366D01*
X47395Y-52386D01*
X47415Y-52407D01*
X47436Y-52448D01*
X47436Y-52489D01*
X47415Y-52551D01*
X47168Y-52799D01*
X47436Y-52799D01*
X47704Y-52366D02*
X47745Y-52366D01*
X47786Y-52386D01*
X47807Y-52407D01*
X47828Y-52448D01*
X47848Y-52531D01*
X47848Y-52634D01*
X47828Y-52716D01*
X47807Y-52758D01*
X47786Y-52778D01*
X47745Y-52799D01*
X47704Y-52799D01*
X47663Y-52778D01*
X47642Y-52758D01*
X47621Y-52716D01*
X47601Y-52634D01*
X47601Y-52531D01*
X47621Y-52448D01*
X47642Y-52407D01*
X47663Y-52386D01*
X47704Y-52366D01*
X48261Y-52799D02*
X48013Y-52799D01*
X48137Y-52799D02*
X48137Y-52366D01*
X48096Y-52428D01*
X48054Y-52469D01*
X48013Y-52489D01*
X48632Y-52510D02*
X48632Y-52799D01*
X48529Y-52345D02*
X48426Y-52654D01*
X48694Y-52654D01*
X48859Y-52758D02*
X48879Y-52778D01*
X48859Y-52799D01*
X48838Y-52778D01*
X48859Y-52758D01*
X48859Y-52799D01*
X49292Y-52799D02*
X49044Y-52799D01*
X49168Y-52799D02*
X49168Y-52366D01*
X49127Y-52428D01*
X49086Y-52469D01*
X49044Y-52489D01*
X49704Y-52799D02*
X49457Y-52799D01*
X49580Y-52799D02*
X49580Y-52366D01*
X49539Y-52428D01*
X49498Y-52469D01*
X49457Y-52489D01*
X49890Y-52758D02*
X49910Y-52778D01*
X49890Y-52799D01*
X49869Y-52778D01*
X49890Y-52758D01*
X49890Y-52799D01*
X50323Y-52799D02*
X50075Y-52799D01*
X50199Y-52799D02*
X50199Y-52366D01*
X50158Y-52428D01*
X50117Y-52469D01*
X50075Y-52489D01*
X50529Y-52799D02*
X50612Y-52799D01*
X50653Y-52778D01*
X50673Y-52758D01*
X50715Y-52696D01*
X50735Y-52613D01*
X50735Y-52448D01*
X50715Y-52407D01*
X50694Y-52386D01*
X50653Y-52366D01*
X50570Y-52366D01*
X50529Y-52386D01*
X50508Y-52407D01*
X50488Y-52448D01*
X50488Y-52551D01*
X50508Y-52593D01*
X50529Y-52613D01*
X50570Y-52634D01*
X50653Y-52634D01*
X50694Y-52613D01*
X50715Y-52593D01*
X50735Y-52551D01*
X47456Y-53484D02*
X47312Y-53278D01*
X47209Y-53484D02*
X47209Y-53051D01*
X47374Y-53051D01*
X47415Y-53071D01*
X47436Y-53092D01*
X47456Y-53133D01*
X47456Y-53195D01*
X47436Y-53236D01*
X47415Y-53257D01*
X47374Y-53278D01*
X47209Y-53278D01*
X47642Y-53257D02*
X47786Y-53257D01*
X47848Y-53484D02*
X47642Y-53484D01*
X47642Y-53051D01*
X47848Y-53051D01*
X47972Y-53051D02*
X48116Y-53484D01*
X48261Y-53051D01*
X48632Y-53484D02*
X48384Y-53484D01*
X48508Y-53484D02*
X48508Y-53051D01*
X48467Y-53113D01*
X48426Y-53154D01*
X48384Y-53175D01*
G54D12*
X81749Y-46808D02*
X82339Y-46808D01*
X81749Y-47145D02*
X82086Y-46892D01*
X82339Y-47145D02*
X82002Y-46808D01*
X81749Y-47708D02*
X81749Y-47370D01*
X81749Y-47539D02*
X82339Y-47539D01*
X82255Y-47483D01*
X82199Y-47426D01*
X82170Y-47370D01*
X81749Y-34997D02*
X82339Y-34997D01*
X81749Y-35334D02*
X82086Y-35081D01*
X82339Y-35334D02*
X82002Y-34997D01*
X82283Y-35559D02*
X82311Y-35587D01*
X82339Y-35643D01*
X82339Y-35784D01*
X82311Y-35840D01*
X82283Y-35868D01*
X82227Y-35897D01*
X82170Y-35897D01*
X82086Y-35868D01*
X81749Y-35531D01*
X81749Y-35897D01*
G54D11*
X81594Y-40354D02*
X81594Y-51771D01*
X81594Y-40354D02*
X81594Y-28937D01*
X80807Y-40354D02*
X81594Y-40354D01*
X80943Y-42800D02*
X81336Y-42800D01*
X80943Y-43025D01*
X81336Y-43025D01*
X81336Y-43288D02*
X81336Y-43363D01*
X81317Y-43400D01*
X81280Y-43438D01*
X81205Y-43457D01*
X81074Y-43457D01*
X80999Y-43438D01*
X80961Y-43400D01*
X80943Y-43363D01*
X80943Y-43288D01*
X80961Y-43250D01*
X80999Y-43213D01*
X81074Y-43194D01*
X81205Y-43194D01*
X81280Y-43213D01*
X81317Y-43250D01*
X81336Y-43288D01*
X80943Y-43832D02*
X80943Y-43607D01*
X80943Y-43719D02*
X81336Y-43719D01*
X81280Y-43682D01*
X81242Y-43644D01*
X81224Y-43607D01*
X80980Y-45209D02*
X80961Y-45191D01*
X80943Y-45134D01*
X80943Y-45097D01*
X80961Y-45041D01*
X80999Y-45003D01*
X81036Y-44985D01*
X81111Y-44966D01*
X81167Y-44966D01*
X81242Y-44985D01*
X81280Y-45003D01*
X81317Y-45041D01*
X81336Y-45097D01*
X81336Y-45134D01*
X81317Y-45191D01*
X81299Y-45209D01*
X80943Y-45584D02*
X80943Y-45359D01*
X80943Y-45472D02*
X81336Y-45472D01*
X81280Y-45434D01*
X81242Y-45397D01*
X81224Y-45359D01*
X80980Y-51115D02*
X80961Y-51096D01*
X80943Y-51040D01*
X80943Y-51003D01*
X80961Y-50946D01*
X80999Y-50909D01*
X81036Y-50890D01*
X81111Y-50871D01*
X81167Y-50871D01*
X81242Y-50890D01*
X81280Y-50909D01*
X81317Y-50946D01*
X81336Y-51003D01*
X81336Y-51040D01*
X81317Y-51096D01*
X81299Y-51115D01*
X81336Y-51359D02*
X81336Y-51396D01*
X81317Y-51434D01*
X81299Y-51452D01*
X81261Y-51471D01*
X81186Y-51490D01*
X81092Y-51490D01*
X81017Y-51471D01*
X80980Y-51452D01*
X80961Y-51434D01*
X80943Y-51396D01*
X80943Y-51359D01*
X80961Y-51321D01*
X80980Y-51302D01*
X81017Y-51284D01*
X81092Y-51265D01*
X81186Y-51265D01*
X81261Y-51284D01*
X81299Y-51302D01*
X81317Y-51321D01*
X81336Y-51359D01*
X80943Y-46747D02*
X81336Y-46747D01*
X80943Y-46972D01*
X81336Y-46972D01*
X80980Y-47384D02*
X80961Y-47365D01*
X80943Y-47309D01*
X80943Y-47272D01*
X80961Y-47215D01*
X80999Y-47178D01*
X81036Y-47159D01*
X81111Y-47140D01*
X81167Y-47140D01*
X81242Y-47159D01*
X81280Y-47178D01*
X81317Y-47215D01*
X81336Y-47272D01*
X81336Y-47309D01*
X81317Y-47365D01*
X81299Y-47384D01*
X81336Y-47628D02*
X81336Y-47665D01*
X81317Y-47703D01*
X81299Y-47722D01*
X81261Y-47740D01*
X81186Y-47759D01*
X81092Y-47759D01*
X81017Y-47740D01*
X80980Y-47722D01*
X80961Y-47703D01*
X80943Y-47665D01*
X80943Y-47628D01*
X80961Y-47590D01*
X80980Y-47572D01*
X81017Y-47553D01*
X81092Y-47534D01*
X81186Y-47534D01*
X81261Y-47553D01*
X81299Y-47572D01*
X81317Y-47590D01*
X81336Y-47628D01*
X80943Y-48706D02*
X81336Y-48706D01*
X80943Y-48931D01*
X81336Y-48931D01*
X81336Y-49193D02*
X81336Y-49268D01*
X81317Y-49306D01*
X81280Y-49343D01*
X81205Y-49362D01*
X81074Y-49362D01*
X80999Y-49343D01*
X80961Y-49306D01*
X80943Y-49268D01*
X80943Y-49193D01*
X80961Y-49156D01*
X80999Y-49118D01*
X81074Y-49100D01*
X81205Y-49100D01*
X81280Y-49118D01*
X81317Y-49156D01*
X81336Y-49193D01*
X81336Y-49606D02*
X81336Y-49643D01*
X81317Y-49681D01*
X81299Y-49700D01*
X81261Y-49718D01*
X81186Y-49737D01*
X81092Y-49737D01*
X81017Y-49718D01*
X80980Y-49700D01*
X80961Y-49681D01*
X80943Y-49643D01*
X80943Y-49606D01*
X80961Y-49568D01*
X80980Y-49550D01*
X81017Y-49531D01*
X81092Y-49512D01*
X81186Y-49512D01*
X81261Y-49531D01*
X81299Y-49550D01*
X81317Y-49568D01*
X81336Y-49606D01*
X80943Y-40841D02*
X81336Y-40841D01*
X80943Y-41066D01*
X81336Y-41066D01*
X80980Y-41479D02*
X80961Y-41460D01*
X80943Y-41404D01*
X80943Y-41366D01*
X80961Y-41310D01*
X80999Y-41272D01*
X81036Y-41254D01*
X81111Y-41235D01*
X81167Y-41235D01*
X81242Y-41254D01*
X81280Y-41272D01*
X81317Y-41310D01*
X81336Y-41366D01*
X81336Y-41404D01*
X81317Y-41460D01*
X81299Y-41479D01*
X80943Y-41854D02*
X80943Y-41629D01*
X80943Y-41741D02*
X81336Y-41741D01*
X81280Y-41704D01*
X81242Y-41666D01*
X81224Y-41629D01*
X80943Y-36895D02*
X81336Y-36895D01*
X80943Y-37120D01*
X81336Y-37120D01*
X81336Y-37382D02*
X81336Y-37457D01*
X81317Y-37495D01*
X81280Y-37532D01*
X81205Y-37551D01*
X81074Y-37551D01*
X80999Y-37532D01*
X80961Y-37495D01*
X80943Y-37457D01*
X80943Y-37382D01*
X80961Y-37345D01*
X80999Y-37307D01*
X81074Y-37289D01*
X81205Y-37289D01*
X81280Y-37307D01*
X81317Y-37345D01*
X81336Y-37382D01*
X81336Y-37795D02*
X81336Y-37832D01*
X81317Y-37870D01*
X81299Y-37889D01*
X81261Y-37907D01*
X81186Y-37926D01*
X81092Y-37926D01*
X81017Y-37907D01*
X80980Y-37889D01*
X80961Y-37870D01*
X80943Y-37832D01*
X80943Y-37795D01*
X80961Y-37757D01*
X80980Y-37739D01*
X81017Y-37720D01*
X81092Y-37701D01*
X81186Y-37701D01*
X81261Y-37720D01*
X81299Y-37739D01*
X81317Y-37757D01*
X81336Y-37795D01*
X80943Y-34936D02*
X81336Y-34936D01*
X80943Y-35161D01*
X81336Y-35161D01*
X80980Y-35573D02*
X80961Y-35554D01*
X80943Y-35498D01*
X80943Y-35461D01*
X80961Y-35404D01*
X80999Y-35367D01*
X81036Y-35348D01*
X81111Y-35329D01*
X81167Y-35329D01*
X81242Y-35348D01*
X81280Y-35367D01*
X81317Y-35404D01*
X81336Y-35461D01*
X81336Y-35498D01*
X81317Y-35554D01*
X81299Y-35573D01*
X81336Y-35817D02*
X81336Y-35854D01*
X81317Y-35892D01*
X81299Y-35911D01*
X81261Y-35929D01*
X81186Y-35948D01*
X81092Y-35948D01*
X81017Y-35929D01*
X80980Y-35911D01*
X80961Y-35892D01*
X80943Y-35854D01*
X80943Y-35817D01*
X80961Y-35779D01*
X80980Y-35761D01*
X81017Y-35742D01*
X81092Y-35723D01*
X81186Y-35723D01*
X81261Y-35742D01*
X81299Y-35761D01*
X81317Y-35779D01*
X81336Y-35817D01*
X80980Y-39304D02*
X80961Y-39285D01*
X80943Y-39229D01*
X80943Y-39191D01*
X80961Y-39135D01*
X80999Y-39098D01*
X81036Y-39079D01*
X81111Y-39060D01*
X81167Y-39060D01*
X81242Y-39079D01*
X81280Y-39098D01*
X81317Y-39135D01*
X81336Y-39191D01*
X81336Y-39229D01*
X81317Y-39285D01*
X81299Y-39304D01*
X81336Y-39548D02*
X81336Y-39585D01*
X81317Y-39623D01*
X81299Y-39641D01*
X81261Y-39660D01*
X81186Y-39679D01*
X81092Y-39679D01*
X81017Y-39660D01*
X80980Y-39641D01*
X80961Y-39623D01*
X80943Y-39585D01*
X80943Y-39548D01*
X80961Y-39510D01*
X80980Y-39491D01*
X81017Y-39473D01*
X81092Y-39454D01*
X81186Y-39454D01*
X81261Y-39473D01*
X81299Y-39491D01*
X81317Y-39510D01*
X81336Y-39548D01*
X80980Y-33398D02*
X80961Y-33380D01*
X80943Y-33323D01*
X80943Y-33286D01*
X80961Y-33230D01*
X80999Y-33192D01*
X81036Y-33173D01*
X81111Y-33155D01*
X81167Y-33155D01*
X81242Y-33173D01*
X81280Y-33192D01*
X81317Y-33230D01*
X81336Y-33286D01*
X81336Y-33323D01*
X81317Y-33380D01*
X81299Y-33398D01*
X80943Y-33773D02*
X80943Y-33548D01*
X80943Y-33661D02*
X81336Y-33661D01*
X81280Y-33623D01*
X81242Y-33586D01*
X81224Y-33548D01*
X80943Y-30989D02*
X81336Y-30989D01*
X80943Y-31214D01*
X81336Y-31214D01*
X81336Y-31477D02*
X81336Y-31552D01*
X81317Y-31589D01*
X81280Y-31627D01*
X81205Y-31646D01*
X81074Y-31646D01*
X80999Y-31627D01*
X80961Y-31589D01*
X80943Y-31552D01*
X80943Y-31477D01*
X80961Y-31439D01*
X80999Y-31402D01*
X81074Y-31383D01*
X81205Y-31383D01*
X81280Y-31402D01*
X81317Y-31439D01*
X81336Y-31477D01*
X80943Y-32020D02*
X80943Y-31796D01*
X80943Y-31908D02*
X81336Y-31908D01*
X81280Y-31871D01*
X81242Y-31833D01*
X81224Y-31796D01*
X80943Y-29030D02*
X81336Y-29030D01*
X80943Y-29255D01*
X81336Y-29255D01*
X80980Y-29668D02*
X80961Y-29649D01*
X80943Y-29593D01*
X80943Y-29555D01*
X80961Y-29499D01*
X80999Y-29461D01*
X81036Y-29443D01*
X81111Y-29424D01*
X81167Y-29424D01*
X81242Y-29443D01*
X81280Y-29461D01*
X81317Y-29499D01*
X81336Y-29555D01*
X81336Y-29593D01*
X81317Y-29649D01*
X81299Y-29668D01*
X80943Y-30043D02*
X80943Y-29818D01*
X80943Y-29930D02*
X81336Y-29930D01*
X81280Y-29893D01*
X81242Y-29855D01*
X81224Y-29818D01*
G54D12*
X38953Y-47852D02*
X38953Y-47402D01*
X38714Y-49413D02*
X39163Y-49413D01*
X38938Y-49638D02*
X38938Y-49188D01*
X40121Y-47405D02*
X40121Y-47770D01*
X39896Y-47573D01*
X39896Y-47658D01*
X39868Y-47714D01*
X39840Y-47742D01*
X39784Y-47770D01*
X39643Y-47770D01*
X39587Y-47742D01*
X39559Y-47714D01*
X39530Y-47658D01*
X39530Y-47489D01*
X39559Y-47433D01*
X39587Y-47405D01*
X40121Y-47939D02*
X39530Y-48136D01*
X40121Y-48333D01*
X39530Y-48979D02*
X40121Y-48979D01*
X39530Y-49261D02*
X40121Y-49261D01*
X39530Y-49598D01*
X40121Y-49598D01*
X49564Y-29302D02*
X49845Y-29105D01*
X49564Y-28965D02*
X50154Y-28965D01*
X50154Y-29190D01*
X50126Y-29246D01*
X50098Y-29274D01*
X50042Y-29302D01*
X49957Y-29302D01*
X49901Y-29274D01*
X49873Y-29246D01*
X49845Y-29190D01*
X49845Y-28965D01*
X49732Y-29527D02*
X49732Y-29808D01*
X49564Y-29471D02*
X50154Y-29668D01*
X49564Y-29865D01*
X49564Y-30061D02*
X50154Y-30061D01*
X50154Y-30202D01*
X50126Y-30286D01*
X50070Y-30343D01*
X50014Y-30371D01*
X49901Y-30399D01*
X49817Y-30399D01*
X49704Y-30371D01*
X49648Y-30343D01*
X49592Y-30286D01*
X49564Y-30202D01*
X49564Y-30061D01*
X49564Y-30652D02*
X50154Y-30652D01*
X50154Y-31046D02*
X50154Y-31158D01*
X50126Y-31214D01*
X50070Y-31271D01*
X49957Y-31299D01*
X49760Y-31299D01*
X49648Y-31271D01*
X49592Y-31214D01*
X49564Y-31158D01*
X49564Y-31046D01*
X49592Y-30989D01*
X49648Y-30933D01*
X49760Y-30905D01*
X49957Y-30905D01*
X50070Y-30933D01*
X50126Y-30989D01*
X50154Y-31046D01*
G54D11*
X38779Y-33267D02*
X38779Y-27362D01*
X50393Y-33267D02*
X38779Y-33267D01*
X50393Y-27362D02*
X50393Y-33267D01*
X38779Y-27362D02*
X50393Y-27362D01*
G54D13*
X49100Y-48950D02*
X49100Y-48100D01*
X49100Y-48100D02*
X50300Y-48100D01*
X50300Y-48100D02*
X50300Y-49000D01*
X49100Y-50200D02*
X49100Y-50350D01*
X49100Y-50350D02*
X50300Y-50350D01*
X50300Y-50350D02*
X50300Y-50200D01*
X49100Y-50200D02*
X49100Y-49450D01*
X49100Y-50200D02*
X50300Y-50200D01*
X50300Y-50200D02*
X50300Y-49450D01*
X66555Y-42568D02*
X69311Y-42568D01*
X66555Y-40600D02*
X69311Y-40600D01*
X66555Y-40600D02*
G75*
G03X65570Y-41584I0J-984D01*
G74*
G01*
X65570Y-41584D02*
G75*
G03X66555Y-42568I984J0D01*
G74*
G01*
X69311Y-42568D02*
G75*
G03X70295Y-41584I0J984D01*
G74*
G01*
X70295Y-41584D02*
G75*
G03X69311Y-40600I-984J0D01*
G74*
G01*
X71200Y-35350D02*
X77800Y-35350D01*
X77800Y-35350D02*
X77800Y-38950D01*
X77800Y-38950D02*
X71200Y-38950D01*
X71200Y-38950D02*
X71200Y-35350D01*
X71100Y-44100D02*
X77700Y-44100D01*
X77700Y-44100D02*
X77700Y-47700D01*
X77700Y-47700D02*
X71100Y-47700D01*
X71100Y-47700D02*
X71100Y-44100D01*
G54D14*
X46100Y-40920D02*
X49100Y-40920D01*
X49100Y-39520D02*
X46100Y-39520D01*
X46100Y-40920D02*
X46100Y-39520D01*
G54D15*
X49100Y-39520D02*
X49100Y-40920D01*
G54D16*
X49041Y-39720D02*
G75*
G03X49041Y-39720I-141J0D01*
G74*
G01*
X49100Y-40470D02*
X48800Y-40470D01*
X48800Y-40470D02*
X48800Y-39970D01*
X48800Y-39970D02*
X49100Y-39970D01*
X52550Y-45450D02*
X52850Y-45650D01*
X51850Y-45450D02*
X52875Y-45450D01*
X52875Y-45450D02*
X52875Y-46050D01*
X52875Y-46050D02*
X51850Y-46050D01*
X51850Y-46050D02*
X51850Y-45450D01*
X43625Y-42875D02*
X44325Y-42875D01*
X44325Y-42875D02*
X44325Y-44075D01*
X44325Y-44075D02*
X43625Y-44075D01*
X43625Y-44075D02*
X43625Y-42875D01*
G54D17*
X69599Y-38062D02*
G75*
G03X69599Y-38062I-62J0D01*
G74*
G01*
X69875Y-39025D02*
X69475Y-39025D01*
X69875Y-38000D02*
X69475Y-38000D01*
X69475Y-39025D02*
X69475Y-38000D01*
X69875Y-38000D02*
X69875Y-39025D01*
X69599Y-36162D02*
G75*
G03X69599Y-36162I-62J0D01*
G74*
G01*
X69875Y-37125D02*
X69475Y-37125D01*
X69875Y-36100D02*
X69475Y-36100D01*
X69475Y-37125D02*
X69475Y-36100D01*
X69875Y-36100D02*
X69875Y-37125D01*
X67838Y-45599D02*
G75*
G03X67838Y-45599I-62J0D01*
G74*
G01*
X68113Y-46562D02*
X67713Y-46562D01*
X68113Y-45537D02*
X67713Y-45537D01*
X67713Y-46562D02*
X67713Y-45537D01*
X68113Y-45537D02*
X68113Y-46562D01*
X67828Y-43867D02*
G75*
G03X67828Y-43867I-62J0D01*
G74*
G01*
X68103Y-44830D02*
X67703Y-44830D01*
X68103Y-43805D02*
X67703Y-43805D01*
X67703Y-44830D02*
X67703Y-43805D01*
X68103Y-43805D02*
X68103Y-44830D01*
G54D16*
X42600Y-49710D02*
X44160Y-49710D01*
X44160Y-49710D02*
X44160Y-47810D01*
X44160Y-47810D02*
X42600Y-47810D01*
X42600Y-47810D02*
X42600Y-49710D01*
X42600Y-49510D02*
X42170Y-49510D01*
X42600Y-49010D02*
X42170Y-49010D01*
X42600Y-48510D02*
X42170Y-48510D01*
X42170Y-48010D02*
X42600Y-48010D01*
X44160Y-48010D02*
X44590Y-48010D01*
X44590Y-48510D02*
X44160Y-48510D01*
X44590Y-49010D02*
X44160Y-49010D01*
X44590Y-49510D02*
X44160Y-49510D01*
X44056Y-49420D02*
G75*
G03X44056Y-49420I-186J0D01*
G74*
G01*
X63812Y-45061D02*
X63812Y-45961D01*
X63812Y-45961D02*
X64462Y-45961D01*
X65162Y-45061D02*
X65812Y-45061D01*
X65812Y-45061D02*
X65812Y-45961D01*
X65812Y-45961D02*
X65162Y-45961D01*
X64462Y-45061D02*
X63812Y-45061D01*
X53700Y-46750D02*
X53700Y-47650D01*
X53700Y-47650D02*
X54350Y-47650D01*
X55050Y-46750D02*
X55700Y-46750D01*
X55700Y-46750D02*
X55700Y-47650D01*
X55700Y-47650D02*
X55050Y-47650D01*
X54350Y-46750D02*
X53700Y-46750D01*
X53700Y-45250D02*
X53700Y-46150D01*
X53700Y-46150D02*
X54350Y-46150D01*
X55050Y-45250D02*
X55700Y-45250D01*
X55700Y-45250D02*
X55700Y-46150D01*
X55700Y-46150D02*
X55050Y-46150D01*
X54350Y-45250D02*
X53700Y-45250D01*
X68150Y-35475D02*
X68150Y-34575D01*
X68150Y-34575D02*
X67500Y-34575D01*
X66800Y-35475D02*
X66150Y-35475D01*
X66150Y-35475D02*
X66150Y-34575D01*
X66150Y-34575D02*
X66800Y-34575D01*
X67500Y-35475D02*
X68150Y-35475D01*
X43875Y-42025D02*
X43875Y-41125D01*
X43875Y-41125D02*
X43225Y-41125D01*
X42525Y-42025D02*
X41875Y-42025D01*
X41875Y-42025D02*
X41875Y-41125D01*
X41875Y-41125D02*
X42525Y-41125D01*
X43225Y-42025D02*
X43875Y-42025D01*
X66150Y-36125D02*
X66150Y-37025D01*
X66150Y-37025D02*
X66800Y-37025D01*
X67500Y-36125D02*
X68150Y-36125D01*
X68150Y-36125D02*
X68150Y-37025D01*
X68150Y-37025D02*
X67500Y-37025D01*
X66800Y-36125D02*
X66150Y-36125D01*
X66150Y-37850D02*
X66150Y-38750D01*
X66150Y-38750D02*
X66800Y-38750D01*
X67500Y-37850D02*
X68150Y-37850D01*
X68150Y-37850D02*
X68150Y-38750D01*
X68150Y-38750D02*
X67500Y-38750D01*
X66800Y-37850D02*
X66150Y-37850D01*
X43875Y-39800D02*
X43875Y-38900D01*
X43875Y-38900D02*
X43225Y-38900D01*
X42525Y-39800D02*
X41875Y-39800D01*
X41875Y-39800D02*
X41875Y-38900D01*
X41875Y-38900D02*
X42525Y-38900D01*
X43225Y-39800D02*
X43875Y-39800D01*
X63832Y-43349D02*
X63832Y-44249D01*
X63832Y-44249D02*
X64482Y-44249D01*
X65182Y-43349D02*
X65832Y-43349D01*
X65832Y-43349D02*
X65832Y-44249D01*
X65832Y-44249D02*
X65182Y-44249D01*
X64482Y-43349D02*
X63832Y-43349D01*
X48900Y-43900D02*
X48900Y-44800D01*
X48900Y-44800D02*
X49550Y-44800D01*
X50250Y-43900D02*
X50900Y-43900D01*
X50900Y-43900D02*
X50900Y-44800D01*
X50900Y-44800D02*
X50250Y-44800D01*
X49550Y-43900D02*
X48900Y-43900D01*
X61370Y-31670D02*
X62270Y-31670D01*
X62270Y-31670D02*
X62270Y-31020D01*
X61370Y-30320D02*
X61370Y-29670D01*
X61370Y-29670D02*
X62270Y-29670D01*
X62270Y-29670D02*
X62270Y-30320D01*
X61370Y-31020D02*
X61370Y-31670D01*
X43125Y-36250D02*
X42225Y-36250D01*
X42225Y-36250D02*
X42225Y-35750D01*
X42225Y-35750D02*
X43125Y-35750D01*
X43125Y-35750D02*
X43125Y-36250D01*
G54D18*
X40950Y-27500D02*
X40950Y-31500D01*
X40950Y-31500D02*
X38950Y-31500D01*
X38950Y-31500D02*
X38950Y-27500D01*
X38950Y-27500D02*
X40950Y-27500D01*
G54D10*
X58400Y-50100D02*
X61400Y-50100D01*
X61400Y-52100D02*
X58400Y-52100D01*
X58400Y-52100D02*
X58400Y-50100D01*
X61400Y-50100D02*
X61400Y-52100D01*
X55260Y-29610D02*
X52260Y-29610D01*
X52260Y-27610D02*
X55260Y-27610D01*
X55260Y-27610D02*
X55260Y-29610D01*
X52260Y-29610D02*
X52260Y-27610D01*
G54D15*
X41940Y-46400D02*
X41940Y-45400D01*
X41940Y-45400D02*
X43940Y-45400D01*
X43940Y-45400D02*
X43940Y-46400D01*
X43940Y-46400D02*
X41940Y-46400D01*
G54D13*
X80787Y-28957D02*
X80787Y-51792D01*
X80787Y-51792D02*
X79212Y-51792D01*
X79212Y-51792D02*
X79212Y-40375D01*
X79212Y-40375D02*
X79212Y-28957D01*
X79212Y-28957D02*
X80787Y-28957D01*
G54D15*
X54550Y-52000D02*
X53550Y-52000D01*
X53550Y-51000D02*
X54550Y-51000D01*
X53550Y-52000D02*
X53550Y-51000D01*
X54550Y-51000D02*
X54550Y-52000D01*
X37350Y-45250D02*
X36350Y-45250D01*
X36350Y-44250D02*
X37350Y-44250D01*
X36350Y-45250D02*
X36350Y-44250D01*
X37350Y-44250D02*
X37350Y-45250D01*
X44950Y-52550D02*
X43950Y-52550D01*
X43950Y-51550D02*
X44950Y-51550D01*
X43950Y-52550D02*
X43950Y-51550D01*
X44950Y-51550D02*
X44950Y-52550D01*
G54D10*
X58820Y-28370D02*
X57320Y-28370D01*
G54D19*
X58777Y-29390D02*
G75*
G03X58777Y-29390I-707J0D01*
G74*
G01*
G54D20*
X57319Y-28390D02*
G75*
G03X58820Y-28390I750J-999D01*
G74*
G01*
G54D15*
X57620Y-29390D02*
G75*
G03X58070Y-29840I450J0D01*
G74*
G01*
X58520Y-29390D02*
G75*
G03X58070Y-28940I-450J0D01*
G74*
G01*
X57420Y-29390D02*
G75*
G03X58070Y-30040I650J0D01*
G74*
G01*
X58720Y-29390D02*
G75*
G03X58070Y-28740I-650J0D01*
G74*
G01*
X57220Y-29390D02*
G75*
G03X58070Y-30240I850J0D01*
G74*
G01*
X58920Y-29390D02*
G75*
G03X58070Y-28540I-850J0D01*
G74*
G01*
G54D13*
X76618Y-40900D02*
X75988Y-40900D01*
X76618Y-40722D02*
X76618Y-41077D01*
X76874Y-41057D02*
X76874Y-40742D01*
X76874Y-40742D02*
X76618Y-40900D01*
X76618Y-40900D02*
X76874Y-41057D01*
X77031Y-40900D02*
X76893Y-40900D01*
X75358Y-40073D02*
X75358Y-40191D01*
X75358Y-40073D02*
X77641Y-40073D01*
X77641Y-40073D02*
X77641Y-40191D01*
X77641Y-41726D02*
X77641Y-41608D01*
X77641Y-41726D02*
X75358Y-41726D01*
X75358Y-41726D02*
X75358Y-41608D01*
X72856Y-40925D02*
X73486Y-40925D01*
X72856Y-41102D02*
X72856Y-40747D01*
X72600Y-40767D02*
X72600Y-41082D01*
X72600Y-41082D02*
X72856Y-40925D01*
X72856Y-40925D02*
X72600Y-40767D01*
X72443Y-40925D02*
X72581Y-40925D01*
X74116Y-41751D02*
X74116Y-41633D01*
X74116Y-41751D02*
X71833Y-41751D01*
X71833Y-41751D02*
X71833Y-41633D01*
X71833Y-40098D02*
X71833Y-40216D01*
X71833Y-40098D02*
X74116Y-40098D01*
X74116Y-40098D02*
X74116Y-40216D01*
X76668Y-49500D02*
X76038Y-49500D01*
X76668Y-49322D02*
X76668Y-49677D01*
X76924Y-49657D02*
X76924Y-49342D01*
X76924Y-49342D02*
X76668Y-49500D01*
X76668Y-49500D02*
X76924Y-49657D01*
X77081Y-49500D02*
X76943Y-49500D01*
X75408Y-48673D02*
X75408Y-48791D01*
X75408Y-48673D02*
X77691Y-48673D01*
X77691Y-48673D02*
X77691Y-48791D01*
X77691Y-50326D02*
X77691Y-50208D01*
X77691Y-50326D02*
X75408Y-50326D01*
X75408Y-50326D02*
X75408Y-50208D01*
X72631Y-49500D02*
X73261Y-49500D01*
X72631Y-49677D02*
X72631Y-49322D01*
X72375Y-49342D02*
X72375Y-49657D01*
X72375Y-49657D02*
X72631Y-49500D01*
X72631Y-49500D02*
X72375Y-49342D01*
X72218Y-49500D02*
X72356Y-49500D01*
X73891Y-50326D02*
X73891Y-50208D01*
X73891Y-50326D02*
X71608Y-50326D01*
X71608Y-50326D02*
X71608Y-50208D01*
X71608Y-48673D02*
X71608Y-48791D01*
X71608Y-48673D02*
X73891Y-48673D01*
X73891Y-48673D02*
X73891Y-48791D01*
G54D21*
X55300Y-39800D02*
X55300Y-40300D01*
X55300Y-40300D02*
X54300Y-40300D01*
X54300Y-40300D02*
X54300Y-39800D01*
X55800Y-39800D02*
X55800Y-43800D01*
X55800Y-43800D02*
X53800Y-43800D01*
X53800Y-43800D02*
X53800Y-39800D01*
X53800Y-39800D02*
X55800Y-39800D01*
X58900Y-47900D02*
X58900Y-32900D01*
X58900Y-32900D02*
X60900Y-32900D01*
X60900Y-32900D02*
X60900Y-47900D01*
X60900Y-47900D02*
X58900Y-47900D01*
X59400Y-47900D02*
X59400Y-47400D01*
X59400Y-47400D02*
X60400Y-47400D01*
X60400Y-47400D02*
X60400Y-47900D01*
G54D13*
X45422Y-44722D02*
X48177Y-44722D01*
X48177Y-44722D02*
X48177Y-47438D01*
X48177Y-47438D02*
X48177Y-47477D01*
X48177Y-47477D02*
X45422Y-47477D01*
X45422Y-47477D02*
X45422Y-44722D01*
G54D16*
X39525Y-34950D02*
X39525Y-35500D01*
X39575Y-34850D02*
X39575Y-35550D01*
X39625Y-34700D02*
X39625Y-35700D01*
X39675Y-35750D02*
X39675Y-34650D01*
X39725Y-34600D02*
X39725Y-35800D01*
X39775Y-35850D02*
X39775Y-34550D01*
X39825Y-34500D02*
X39825Y-35900D01*
X41375Y-35200D02*
G75*
G03X41375Y-35200I-950J0D01*
G74*
G01*
X39375Y-34150D02*
X41175Y-34150D01*
X41175Y-34150D02*
X41475Y-34450D01*
X41475Y-34450D02*
X41475Y-35950D01*
X41475Y-35950D02*
X41175Y-36250D01*
X41175Y-36250D02*
X39375Y-36250D01*
X39375Y-36250D02*
X39375Y-34150D01*
X41275Y-35200D02*
X40975Y-35200D01*
X41125Y-35050D02*
X41125Y-35350D01*
X64230Y-38750D02*
X64870Y-38750D01*
X64870Y-37850D02*
X64230Y-37850D01*
X64870Y-37670D02*
X64230Y-37670D01*
X64230Y-37670D02*
X64230Y-38930D01*
X64230Y-38930D02*
X64870Y-38930D01*
X64870Y-38930D02*
X64870Y-37670D01*
X64870Y-40100D02*
X64230Y-40100D01*
X64230Y-41000D02*
X64870Y-41000D01*
X64230Y-41180D02*
X64870Y-41180D01*
X64870Y-41180D02*
X64870Y-39920D01*
X64870Y-39920D02*
X64230Y-39920D01*
X64230Y-39920D02*
X64230Y-41180D01*
X55300Y-38070D02*
X55300Y-37430D01*
X54400Y-37430D02*
X54400Y-38070D01*
X54220Y-37430D02*
X54220Y-38070D01*
X54220Y-38070D02*
X55480Y-38070D01*
X55480Y-38070D02*
X55480Y-37430D01*
X55480Y-37430D02*
X54220Y-37430D01*
X49375Y-42705D02*
X49375Y-43345D01*
X50275Y-43345D02*
X50275Y-42705D01*
X50455Y-43345D02*
X50455Y-42705D01*
X50455Y-42705D02*
X49195Y-42705D01*
X49195Y-42705D02*
X49195Y-43345D01*
X49195Y-43345D02*
X50455Y-43345D01*
X47200Y-36170D02*
X47200Y-35530D01*
X46300Y-35530D02*
X46300Y-36170D01*
X46120Y-35530D02*
X46120Y-36170D01*
X46120Y-36170D02*
X47380Y-36170D01*
X47380Y-36170D02*
X47380Y-35530D01*
X47380Y-35530D02*
X46120Y-35530D01*
X47200Y-37320D02*
X47200Y-36680D01*
X46300Y-36680D02*
X46300Y-37320D01*
X46120Y-36680D02*
X46120Y-37320D01*
X46120Y-37320D02*
X47380Y-37320D01*
X47380Y-37320D02*
X47380Y-36680D01*
X47380Y-36680D02*
X46120Y-36680D01*
X42425Y-36705D02*
X42425Y-37345D01*
X43325Y-37345D02*
X43325Y-36705D01*
X43505Y-37345D02*
X43505Y-36705D01*
X43505Y-36705D02*
X42245Y-36705D01*
X42245Y-36705D02*
X42245Y-37345D01*
X42245Y-37345D02*
X43505Y-37345D01*
X42400Y-37905D02*
X42400Y-38545D01*
X43300Y-38545D02*
X43300Y-37905D01*
X43480Y-38545D02*
X43480Y-37905D01*
X43480Y-37905D02*
X42220Y-37905D01*
X42220Y-37905D02*
X42220Y-38545D01*
X42220Y-38545D02*
X43480Y-38545D01*
X42400Y-40155D02*
X42400Y-40795D01*
X43300Y-40795D02*
X43300Y-40155D01*
X43480Y-40795D02*
X43480Y-40155D01*
X43480Y-40155D02*
X42220Y-40155D01*
X42220Y-40155D02*
X42220Y-40795D01*
X42220Y-40795D02*
X43480Y-40795D01*
X47380Y-49775D02*
X48020Y-49775D01*
X48020Y-48875D02*
X47380Y-48875D01*
X48020Y-48695D02*
X47380Y-48695D01*
X47380Y-48695D02*
X47380Y-49955D01*
X47380Y-49955D02*
X48020Y-49955D01*
X48020Y-49955D02*
X48020Y-48695D01*
X45855Y-49775D02*
X46495Y-49775D01*
X46495Y-48875D02*
X45855Y-48875D01*
X46495Y-48695D02*
X45855Y-48695D01*
X45855Y-48695D02*
X45855Y-49955D01*
X45855Y-49955D02*
X46495Y-49955D01*
X46495Y-49955D02*
X46495Y-48695D01*
X55350Y-36595D02*
X55350Y-35955D01*
X54450Y-35955D02*
X54450Y-36595D01*
X54270Y-35955D02*
X54270Y-36595D01*
X54270Y-36595D02*
X55530Y-36595D01*
X55530Y-36595D02*
X55530Y-35955D01*
X55530Y-35955D02*
X54270Y-35955D01*
G54D13*
X35950Y-48500D02*
X37650Y-48500D01*
X36150Y-50200D02*
X37650Y-50200D01*
X37650Y-50200D02*
X37650Y-46800D01*
X37650Y-46800D02*
X35950Y-46800D01*
X35950Y-46800D02*
X35950Y-50200D01*
X35950Y-50200D02*
X36150Y-50200D01*
X52950Y-49475D02*
X52950Y-50325D01*
X52950Y-50325D02*
X51750Y-50325D01*
X51750Y-50325D02*
X51750Y-49425D01*
X52950Y-48225D02*
X52950Y-48075D01*
X52950Y-48075D02*
X51750Y-48075D01*
X51750Y-48075D02*
X51750Y-48225D01*
X52950Y-48225D02*
X52950Y-48975D01*
X52950Y-48225D02*
X51750Y-48225D01*
X51750Y-48225D02*
X51750Y-48975D01*
G54D16*
X68232Y-49028D02*
X68232Y-49928D01*
X68232Y-49928D02*
X68882Y-49928D01*
X69582Y-49028D02*
X70232Y-49028D01*
X70232Y-49028D02*
X70232Y-49928D01*
X70232Y-49928D02*
X69582Y-49928D01*
X68882Y-49028D02*
X68232Y-49028D01*
X70222Y-51975D02*
X70222Y-51075D01*
X70222Y-51075D02*
X69572Y-51075D01*
X68872Y-51975D02*
X68222Y-51975D01*
X68222Y-51975D02*
X68222Y-51075D01*
X68222Y-51075D02*
X68872Y-51075D01*
X69572Y-51975D02*
X70222Y-51975D01*
G54D13*
X64005Y-51712D02*
X64005Y-49429D01*
X64005Y-53484D02*
X64005Y-52618D01*
X65816Y-48602D02*
X66131Y-48602D01*
X64557Y-48602D02*
X64872Y-48602D01*
X66683Y-51712D02*
X66683Y-49429D01*
X66683Y-53484D02*
X66683Y-52618D01*
X66683Y-53484D02*
X64005Y-53484D01*
G54D18*
X66875Y-31450D02*
X68375Y-29950D01*
X68375Y-29950D02*
X68375Y-29450D01*
X68375Y-29450D02*
X67875Y-28950D01*
X67875Y-28950D02*
X66875Y-28950D01*
X66875Y-28950D02*
X65875Y-29950D01*
X65875Y-29950D02*
X65875Y-30950D01*
X65875Y-30950D02*
X66375Y-31450D01*
X66375Y-31450D02*
X66875Y-31450D01*
G54D13*
X50821Y-49265D02*
X50840Y-49284D01*
X50859Y-49340D01*
X50859Y-49378D01*
X50840Y-49434D01*
X50803Y-49471D01*
X50765Y-49490D01*
X50690Y-49509D01*
X50634Y-49509D01*
X50559Y-49490D01*
X50521Y-49471D01*
X50484Y-49434D01*
X50465Y-49378D01*
X50465Y-49340D01*
X50484Y-49284D01*
X50503Y-49265D01*
X50634Y-49040D02*
X50615Y-49078D01*
X50596Y-49096D01*
X50559Y-49115D01*
X50540Y-49115D01*
X50503Y-49096D01*
X50484Y-49078D01*
X50465Y-49040D01*
X50465Y-48965D01*
X50484Y-48928D01*
X50503Y-48909D01*
X50540Y-48890D01*
X50559Y-48890D01*
X50596Y-48909D01*
X50615Y-48928D01*
X50634Y-48965D01*
X50634Y-49040D01*
X50653Y-49078D01*
X50671Y-49096D01*
X50709Y-49115D01*
X50784Y-49115D01*
X50821Y-49096D01*
X50840Y-49078D01*
X50859Y-49040D01*
X50859Y-48965D01*
X50840Y-48928D01*
X50821Y-48909D01*
X50784Y-48890D01*
X50709Y-48890D01*
X50671Y-48909D01*
X50653Y-48928D01*
X50634Y-48965D01*
X67614Y-42856D02*
X67876Y-43249D01*
X67876Y-42856D02*
X67614Y-43249D01*
X68233Y-43249D02*
X68008Y-43249D01*
X68120Y-43249D02*
X68120Y-42856D01*
X68083Y-42912D01*
X68045Y-42949D01*
X68008Y-42968D01*
X39021Y-39818D02*
X39040Y-39836D01*
X39059Y-39893D01*
X39059Y-39930D01*
X39040Y-39986D01*
X39003Y-40024D01*
X38965Y-40043D01*
X38890Y-40061D01*
X38834Y-40061D01*
X38759Y-40043D01*
X38721Y-40024D01*
X38684Y-39986D01*
X38665Y-39930D01*
X38665Y-39893D01*
X38684Y-39836D01*
X38703Y-39818D01*
X38665Y-39574D02*
X38665Y-39499D01*
X38684Y-39461D01*
X38721Y-39424D01*
X38796Y-39405D01*
X38928Y-39405D01*
X39003Y-39424D01*
X39040Y-39461D01*
X39059Y-39499D01*
X39059Y-39574D01*
X39040Y-39611D01*
X39003Y-39649D01*
X38928Y-39668D01*
X38796Y-39668D01*
X38721Y-39649D01*
X38684Y-39611D01*
X38665Y-39574D01*
X39059Y-39236D02*
X38665Y-39236D01*
X39059Y-39011D01*
X38665Y-39011D01*
X39059Y-38618D02*
X39059Y-38843D01*
X39059Y-38730D02*
X38665Y-38730D01*
X38721Y-38768D01*
X38759Y-38805D01*
X38778Y-38843D01*
X74279Y-39609D02*
X74279Y-39215D01*
X74504Y-39609D02*
X74335Y-39384D01*
X74504Y-39215D02*
X74279Y-39440D01*
X74654Y-39253D02*
X74673Y-39234D01*
X74710Y-39215D01*
X74804Y-39215D01*
X74841Y-39234D01*
X74860Y-39253D01*
X74879Y-39290D01*
X74879Y-39328D01*
X74860Y-39384D01*
X74635Y-39609D01*
X74879Y-39609D01*
X74109Y-48329D02*
X74109Y-47935D01*
X74334Y-48329D02*
X74165Y-48104D01*
X74334Y-47935D02*
X74109Y-48160D01*
X74709Y-48329D02*
X74484Y-48329D01*
X74596Y-48329D02*
X74596Y-47935D01*
X74559Y-47991D01*
X74521Y-48029D01*
X74484Y-48048D01*
G54D16*
X45581Y-40438D02*
X45824Y-40438D01*
X45852Y-40424D01*
X45867Y-40410D01*
X45881Y-40381D01*
X45881Y-40324D01*
X45867Y-40295D01*
X45852Y-40281D01*
X45824Y-40267D01*
X45581Y-40267D01*
X45581Y-39981D02*
X45581Y-40124D01*
X45724Y-40138D01*
X45710Y-40124D01*
X45695Y-40095D01*
X45695Y-40024D01*
X45710Y-39995D01*
X45724Y-39981D01*
X45752Y-39967D01*
X45824Y-39967D01*
X45852Y-39981D01*
X45867Y-39995D01*
X45881Y-40024D01*
X45881Y-40095D01*
X45867Y-40124D01*
X45852Y-40138D01*
G54D19*
X51684Y-45971D02*
X51384Y-45971D01*
X51384Y-45900D01*
X51398Y-45857D01*
X51427Y-45828D01*
X51455Y-45814D01*
X51513Y-45800D01*
X51555Y-45800D01*
X51613Y-45814D01*
X51641Y-45828D01*
X51670Y-45857D01*
X51684Y-45900D01*
X51684Y-45971D01*
X51684Y-45514D02*
X51684Y-45685D01*
X51684Y-45600D02*
X51384Y-45600D01*
X51427Y-45628D01*
X51455Y-45657D01*
X51470Y-45685D01*
G54D16*
X43666Y-42460D02*
X43666Y-42662D01*
X43678Y-42686D01*
X43690Y-42698D01*
X43714Y-42710D01*
X43761Y-42710D01*
X43785Y-42698D01*
X43797Y-42686D01*
X43809Y-42662D01*
X43809Y-42460D01*
X44035Y-42543D02*
X44035Y-42710D01*
X43976Y-42448D02*
X43916Y-42626D01*
X44071Y-42626D01*
G54D22*
X69685Y-39462D02*
X69656Y-39447D01*
X69628Y-39419D01*
X69585Y-39376D01*
X69556Y-39362D01*
X69528Y-39362D01*
X69542Y-39433D02*
X69514Y-39419D01*
X69485Y-39390D01*
X69471Y-39333D01*
X69471Y-39233D01*
X69485Y-39176D01*
X69514Y-39147D01*
X69542Y-39133D01*
X69599Y-39133D01*
X69628Y-39147D01*
X69656Y-39176D01*
X69671Y-39233D01*
X69671Y-39333D01*
X69656Y-39390D01*
X69628Y-39419D01*
X69599Y-39433D01*
X69542Y-39433D01*
X69785Y-39162D02*
X69799Y-39147D01*
X69828Y-39133D01*
X69899Y-39133D01*
X69928Y-39147D01*
X69942Y-39162D01*
X69956Y-39190D01*
X69956Y-39219D01*
X69942Y-39262D01*
X69771Y-39433D01*
X69956Y-39433D01*
X69685Y-37562D02*
X69656Y-37547D01*
X69628Y-37519D01*
X69585Y-37476D01*
X69556Y-37462D01*
X69528Y-37462D01*
X69542Y-37533D02*
X69514Y-37519D01*
X69485Y-37490D01*
X69471Y-37433D01*
X69471Y-37333D01*
X69485Y-37276D01*
X69514Y-37247D01*
X69542Y-37233D01*
X69599Y-37233D01*
X69628Y-37247D01*
X69656Y-37276D01*
X69671Y-37333D01*
X69671Y-37433D01*
X69656Y-37490D01*
X69628Y-37519D01*
X69599Y-37533D01*
X69542Y-37533D01*
X69928Y-37333D02*
X69928Y-37533D01*
X69856Y-37219D02*
X69785Y-37433D01*
X69971Y-37433D01*
X67923Y-46999D02*
X67895Y-46985D01*
X67866Y-46957D01*
X67823Y-46914D01*
X67795Y-46899D01*
X67766Y-46899D01*
X67780Y-46971D02*
X67752Y-46957D01*
X67723Y-46928D01*
X67709Y-46871D01*
X67709Y-46771D01*
X67723Y-46714D01*
X67752Y-46685D01*
X67780Y-46671D01*
X67838Y-46671D01*
X67866Y-46685D01*
X67895Y-46714D01*
X67909Y-46771D01*
X67909Y-46871D01*
X67895Y-46928D01*
X67866Y-46957D01*
X67838Y-46971D01*
X67780Y-46971D01*
X68195Y-46971D02*
X68023Y-46971D01*
X68109Y-46971D02*
X68109Y-46671D01*
X68080Y-46714D01*
X68052Y-46742D01*
X68023Y-46757D01*
X67913Y-45267D02*
X67885Y-45253D01*
X67856Y-45224D01*
X67813Y-45181D01*
X67785Y-45167D01*
X67756Y-45167D01*
X67771Y-45239D02*
X67742Y-45224D01*
X67713Y-45196D01*
X67699Y-45139D01*
X67699Y-45039D01*
X67713Y-44981D01*
X67742Y-44953D01*
X67771Y-44939D01*
X67828Y-44939D01*
X67856Y-44953D01*
X67885Y-44981D01*
X67899Y-45039D01*
X67899Y-45139D01*
X67885Y-45196D01*
X67856Y-45224D01*
X67828Y-45239D01*
X67771Y-45239D01*
X67999Y-44939D02*
X68185Y-44939D01*
X68085Y-45053D01*
X68128Y-45053D01*
X68156Y-45067D01*
X68171Y-45081D01*
X68185Y-45110D01*
X68185Y-45181D01*
X68171Y-45210D01*
X68156Y-45224D01*
X68128Y-45239D01*
X68042Y-45239D01*
X68013Y-45224D01*
X67999Y-45210D01*
G54D23*
X43155Y-49854D02*
X43155Y-50093D01*
X43169Y-50121D01*
X43183Y-50135D01*
X43211Y-50149D01*
X43267Y-50149D01*
X43295Y-50135D01*
X43309Y-50121D01*
X43323Y-50093D01*
X43323Y-49854D01*
X43618Y-50149D02*
X43450Y-50149D01*
X43534Y-50149D02*
X43534Y-49854D01*
X43506Y-49896D01*
X43478Y-49924D01*
X43450Y-49938D01*
G54D16*
X64762Y-46460D02*
X64662Y-46317D01*
X64591Y-46460D02*
X64591Y-46160D01*
X64705Y-46160D01*
X64734Y-46174D01*
X64748Y-46188D01*
X64762Y-46217D01*
X64762Y-46260D01*
X64748Y-46288D01*
X64734Y-46302D01*
X64705Y-46317D01*
X64591Y-46317D01*
X64934Y-46288D02*
X64905Y-46274D01*
X64891Y-46260D01*
X64877Y-46231D01*
X64877Y-46217D01*
X64891Y-46188D01*
X64905Y-46174D01*
X64934Y-46160D01*
X64991Y-46160D01*
X65020Y-46174D01*
X65034Y-46188D01*
X65048Y-46217D01*
X65048Y-46231D01*
X65034Y-46260D01*
X65020Y-46274D01*
X64991Y-46288D01*
X64934Y-46288D01*
X64905Y-46302D01*
X64891Y-46317D01*
X64877Y-46345D01*
X64877Y-46402D01*
X64891Y-46431D01*
X64905Y-46445D01*
X64934Y-46460D01*
X64991Y-46460D01*
X65020Y-46445D01*
X65034Y-46431D01*
X65048Y-46402D01*
X65048Y-46345D01*
X65034Y-46317D01*
X65020Y-46302D01*
X64991Y-46288D01*
X54650Y-48101D02*
X54550Y-47958D01*
X54478Y-48101D02*
X54478Y-47801D01*
X54592Y-47801D01*
X54621Y-47815D01*
X54635Y-47830D01*
X54650Y-47858D01*
X54650Y-47901D01*
X54635Y-47930D01*
X54621Y-47944D01*
X54592Y-47958D01*
X54478Y-47958D01*
X54921Y-47801D02*
X54778Y-47801D01*
X54764Y-47944D01*
X54778Y-47930D01*
X54807Y-47915D01*
X54878Y-47915D01*
X54907Y-47930D01*
X54921Y-47944D01*
X54935Y-47972D01*
X54935Y-48044D01*
X54921Y-48072D01*
X54907Y-48087D01*
X54878Y-48101D01*
X54807Y-48101D01*
X54778Y-48087D01*
X54764Y-48072D01*
X54650Y-46591D02*
X54550Y-46448D01*
X54478Y-46591D02*
X54478Y-46291D01*
X54592Y-46291D01*
X54621Y-46305D01*
X54635Y-46320D01*
X54650Y-46348D01*
X54650Y-46391D01*
X54635Y-46420D01*
X54621Y-46434D01*
X54592Y-46448D01*
X54478Y-46448D01*
X54907Y-46291D02*
X54850Y-46291D01*
X54821Y-46305D01*
X54807Y-46320D01*
X54778Y-46362D01*
X54764Y-46420D01*
X54764Y-46534D01*
X54778Y-46562D01*
X54792Y-46577D01*
X54821Y-46591D01*
X54878Y-46591D01*
X54907Y-46577D01*
X54921Y-46562D01*
X54935Y-46534D01*
X54935Y-46462D01*
X54921Y-46434D01*
X54907Y-46420D01*
X54878Y-46405D01*
X54821Y-46405D01*
X54792Y-46420D01*
X54778Y-46434D01*
X54764Y-46462D01*
X67100Y-35941D02*
X67000Y-35798D01*
X66928Y-35941D02*
X66928Y-35641D01*
X67042Y-35641D01*
X67071Y-35655D01*
X67085Y-35670D01*
X67100Y-35698D01*
X67100Y-35741D01*
X67085Y-35770D01*
X67071Y-35784D01*
X67042Y-35798D01*
X66928Y-35798D01*
X67385Y-35941D02*
X67214Y-35941D01*
X67300Y-35941D02*
X67300Y-35641D01*
X67271Y-35684D01*
X67242Y-35712D01*
X67214Y-35727D01*
X44391Y-41630D02*
X44248Y-41730D01*
X44391Y-41801D02*
X44091Y-41801D01*
X44091Y-41687D01*
X44105Y-41658D01*
X44120Y-41644D01*
X44148Y-41630D01*
X44191Y-41630D01*
X44220Y-41644D01*
X44234Y-41658D01*
X44248Y-41687D01*
X44248Y-41801D01*
X44091Y-41530D02*
X44091Y-41344D01*
X44205Y-41444D01*
X44205Y-41401D01*
X44220Y-41372D01*
X44234Y-41358D01*
X44262Y-41344D01*
X44334Y-41344D01*
X44362Y-41358D01*
X44377Y-41372D01*
X44391Y-41401D01*
X44391Y-41487D01*
X44377Y-41515D01*
X44362Y-41530D01*
X66957Y-37531D02*
X66857Y-37388D01*
X66785Y-37531D02*
X66785Y-37231D01*
X66900Y-37231D01*
X66928Y-37245D01*
X66942Y-37260D01*
X66957Y-37288D01*
X66957Y-37331D01*
X66942Y-37360D01*
X66928Y-37374D01*
X66900Y-37388D01*
X66785Y-37388D01*
X67242Y-37531D02*
X67071Y-37531D01*
X67157Y-37531D02*
X67157Y-37231D01*
X67128Y-37274D01*
X67100Y-37302D01*
X67071Y-37317D01*
X67528Y-37531D02*
X67357Y-37531D01*
X67442Y-37531D02*
X67442Y-37231D01*
X67414Y-37274D01*
X67385Y-37302D01*
X67357Y-37317D01*
X67100Y-39211D02*
X67000Y-39068D01*
X66928Y-39211D02*
X66928Y-38911D01*
X67042Y-38911D01*
X67071Y-38925D01*
X67085Y-38940D01*
X67100Y-38968D01*
X67100Y-39011D01*
X67085Y-39040D01*
X67071Y-39054D01*
X67042Y-39068D01*
X66928Y-39068D01*
X67242Y-39211D02*
X67300Y-39211D01*
X67328Y-39197D01*
X67342Y-39182D01*
X67371Y-39140D01*
X67385Y-39082D01*
X67385Y-38968D01*
X67371Y-38940D01*
X67357Y-38925D01*
X67328Y-38911D01*
X67271Y-38911D01*
X67242Y-38925D01*
X67228Y-38940D01*
X67214Y-38968D01*
X67214Y-39040D01*
X67228Y-39068D01*
X67242Y-39082D01*
X67271Y-39097D01*
X67328Y-39097D01*
X67357Y-39082D01*
X67371Y-39068D01*
X67385Y-39040D01*
X44331Y-39400D02*
X44188Y-39500D01*
X44331Y-39571D02*
X44031Y-39571D01*
X44031Y-39457D01*
X44045Y-39428D01*
X44060Y-39414D01*
X44088Y-39400D01*
X44131Y-39400D01*
X44160Y-39414D01*
X44174Y-39428D01*
X44188Y-39457D01*
X44188Y-39571D01*
X44060Y-39285D02*
X44045Y-39271D01*
X44031Y-39242D01*
X44031Y-39171D01*
X44045Y-39142D01*
X44060Y-39128D01*
X44088Y-39114D01*
X44117Y-39114D01*
X44160Y-39128D01*
X44331Y-39300D01*
X44331Y-39114D01*
X64639Y-44796D02*
X64539Y-44653D01*
X64468Y-44796D02*
X64468Y-44496D01*
X64582Y-44496D01*
X64611Y-44510D01*
X64625Y-44525D01*
X64639Y-44553D01*
X64639Y-44596D01*
X64625Y-44625D01*
X64611Y-44639D01*
X64582Y-44653D01*
X64468Y-44653D01*
X64925Y-44796D02*
X64754Y-44796D01*
X64839Y-44796D02*
X64839Y-44496D01*
X64811Y-44539D01*
X64782Y-44568D01*
X64754Y-44582D01*
X65111Y-44496D02*
X65139Y-44496D01*
X65168Y-44510D01*
X65182Y-44525D01*
X65196Y-44553D01*
X65211Y-44610D01*
X65211Y-44682D01*
X65196Y-44739D01*
X65182Y-44768D01*
X65168Y-44782D01*
X65139Y-44796D01*
X65111Y-44796D01*
X65082Y-44782D01*
X65068Y-44768D01*
X65054Y-44739D01*
X65039Y-44682D01*
X65039Y-44610D01*
X65054Y-44553D01*
X65068Y-44525D01*
X65082Y-44510D01*
X65111Y-44496D01*
X49850Y-45321D02*
X49750Y-45178D01*
X49678Y-45321D02*
X49678Y-45021D01*
X49792Y-45021D01*
X49821Y-45035D01*
X49835Y-45050D01*
X49850Y-45078D01*
X49850Y-45121D01*
X49835Y-45150D01*
X49821Y-45164D01*
X49792Y-45178D01*
X49678Y-45178D01*
X50107Y-45121D02*
X50107Y-45321D01*
X50035Y-45007D02*
X49964Y-45221D01*
X50150Y-45221D01*
X62806Y-30735D02*
X62663Y-30835D01*
X62806Y-30906D02*
X62506Y-30906D01*
X62506Y-30792D01*
X62520Y-30763D01*
X62535Y-30749D01*
X62563Y-30735D01*
X62606Y-30735D01*
X62635Y-30749D01*
X62649Y-30763D01*
X62663Y-30792D01*
X62663Y-30906D01*
X62506Y-30635D02*
X62506Y-30435D01*
X62806Y-30563D01*
G54D24*
X43470Y-36040D02*
X43470Y-36125D01*
X43270Y-36125D01*
X43290Y-35988D02*
X43280Y-35980D01*
X43270Y-35962D01*
X43270Y-35920D01*
X43280Y-35902D01*
X43290Y-35894D01*
X43309Y-35885D01*
X43328Y-35885D01*
X43356Y-35894D01*
X43470Y-35997D01*
X43470Y-35885D01*
G54D10*
X41611Y-29795D02*
X41211Y-29795D01*
X41211Y-29642D01*
X41230Y-29604D01*
X41250Y-29585D01*
X41288Y-29566D01*
X41345Y-29566D01*
X41383Y-29585D01*
X41402Y-29604D01*
X41421Y-29642D01*
X41421Y-29795D01*
X41250Y-29414D02*
X41230Y-29395D01*
X41211Y-29357D01*
X41211Y-29261D01*
X41230Y-29223D01*
X41250Y-29204D01*
X41288Y-29185D01*
X41326Y-29185D01*
X41383Y-29204D01*
X41611Y-29433D01*
X41611Y-29185D01*
X59604Y-52761D02*
X59604Y-52361D01*
X59757Y-52361D01*
X59795Y-52380D01*
X59814Y-52400D01*
X59833Y-52438D01*
X59833Y-52495D01*
X59814Y-52533D01*
X59795Y-52552D01*
X59757Y-52571D01*
X59604Y-52571D01*
X60176Y-52495D02*
X60176Y-52761D01*
X60080Y-52342D02*
X59985Y-52628D01*
X60233Y-52628D01*
X53464Y-27271D02*
X53464Y-26871D01*
X53617Y-26871D01*
X53655Y-26890D01*
X53674Y-26910D01*
X53693Y-26948D01*
X53693Y-27005D01*
X53674Y-27043D01*
X53655Y-27062D01*
X53617Y-27081D01*
X53464Y-27081D01*
X53826Y-26871D02*
X54074Y-26871D01*
X53940Y-27024D01*
X53998Y-27024D01*
X54036Y-27043D01*
X54055Y-27062D01*
X54074Y-27100D01*
X54074Y-27195D01*
X54055Y-27233D01*
X54036Y-27252D01*
X53998Y-27271D01*
X53883Y-27271D01*
X53845Y-27252D01*
X53826Y-27233D01*
G54D15*
X42690Y-44971D02*
X42690Y-45185D01*
X42675Y-45228D01*
X42647Y-45257D01*
X42604Y-45271D01*
X42575Y-45271D01*
X42832Y-45271D02*
X42832Y-44971D01*
X42947Y-44971D01*
X42975Y-44985D01*
X42990Y-45000D01*
X43004Y-45028D01*
X43004Y-45071D01*
X42990Y-45100D01*
X42975Y-45114D01*
X42947Y-45128D01*
X42832Y-45128D01*
X43290Y-45271D02*
X43118Y-45271D01*
X43204Y-45271D02*
X43204Y-44971D01*
X43175Y-45014D01*
X43147Y-45042D01*
X43118Y-45057D01*
G54D13*
X79138Y-52521D02*
X79138Y-52127D01*
X79288Y-52127D01*
X79326Y-52146D01*
X79344Y-52165D01*
X79363Y-52202D01*
X79363Y-52259D01*
X79344Y-52296D01*
X79326Y-52315D01*
X79288Y-52334D01*
X79138Y-52334D01*
X79588Y-52296D02*
X79550Y-52277D01*
X79532Y-52259D01*
X79513Y-52221D01*
X79513Y-52202D01*
X79532Y-52165D01*
X79550Y-52146D01*
X79588Y-52127D01*
X79663Y-52127D01*
X79700Y-52146D01*
X79719Y-52165D01*
X79738Y-52202D01*
X79738Y-52221D01*
X79719Y-52259D01*
X79700Y-52277D01*
X79663Y-52296D01*
X79588Y-52296D01*
X79550Y-52315D01*
X79532Y-52334D01*
X79513Y-52371D01*
X79513Y-52446D01*
X79532Y-52484D01*
X79550Y-52502D01*
X79588Y-52521D01*
X79663Y-52521D01*
X79700Y-52502D01*
X79719Y-52484D01*
X79738Y-52446D01*
X79738Y-52371D01*
X79719Y-52334D01*
X79700Y-52315D01*
X79663Y-52296D01*
G54D15*
X53828Y-50871D02*
X53828Y-50571D01*
X53942Y-50571D01*
X53971Y-50585D01*
X53985Y-50600D01*
X54000Y-50628D01*
X54000Y-50671D01*
X53985Y-50700D01*
X53971Y-50714D01*
X53942Y-50728D01*
X53828Y-50728D01*
X54257Y-50571D02*
X54200Y-50571D01*
X54171Y-50585D01*
X54157Y-50600D01*
X54128Y-50642D01*
X54114Y-50700D01*
X54114Y-50814D01*
X54128Y-50842D01*
X54142Y-50857D01*
X54171Y-50871D01*
X54228Y-50871D01*
X54257Y-50857D01*
X54271Y-50842D01*
X54285Y-50814D01*
X54285Y-50742D01*
X54271Y-50714D01*
X54257Y-50700D01*
X54228Y-50685D01*
X54171Y-50685D01*
X54142Y-50700D01*
X54128Y-50714D01*
X54114Y-50742D01*
X36628Y-44121D02*
X36628Y-43821D01*
X36742Y-43821D01*
X36771Y-43835D01*
X36785Y-43850D01*
X36800Y-43878D01*
X36800Y-43921D01*
X36785Y-43950D01*
X36771Y-43964D01*
X36742Y-43978D01*
X36628Y-43978D01*
X36900Y-43821D02*
X37100Y-43821D01*
X36971Y-44121D01*
X44228Y-51421D02*
X44228Y-51121D01*
X44342Y-51121D01*
X44371Y-51135D01*
X44385Y-51150D01*
X44400Y-51178D01*
X44400Y-51221D01*
X44385Y-51250D01*
X44371Y-51264D01*
X44342Y-51278D01*
X44228Y-51278D01*
X44671Y-51121D02*
X44528Y-51121D01*
X44514Y-51264D01*
X44528Y-51250D01*
X44557Y-51235D01*
X44628Y-51235D01*
X44657Y-51250D01*
X44671Y-51264D01*
X44685Y-51292D01*
X44685Y-51364D01*
X44671Y-51392D01*
X44657Y-51407D01*
X44628Y-51421D01*
X44557Y-51421D01*
X44528Y-51407D01*
X44514Y-51392D01*
G54D25*
X57843Y-28131D02*
X57843Y-27831D01*
X57915Y-27831D01*
X57957Y-27845D01*
X57986Y-27874D01*
X58000Y-27902D01*
X58015Y-27960D01*
X58015Y-28002D01*
X58000Y-28060D01*
X57986Y-28088D01*
X57957Y-28117D01*
X57915Y-28131D01*
X57843Y-28131D01*
X58129Y-27860D02*
X58143Y-27845D01*
X58172Y-27831D01*
X58243Y-27831D01*
X58272Y-27845D01*
X58286Y-27860D01*
X58300Y-27888D01*
X58300Y-27917D01*
X58286Y-27960D01*
X58115Y-28131D01*
X58300Y-28131D01*
G54D13*
X76229Y-42359D02*
X76229Y-41965D01*
X76323Y-41965D01*
X76379Y-41984D01*
X76416Y-42021D01*
X76435Y-42059D01*
X76454Y-42134D01*
X76454Y-42190D01*
X76435Y-42265D01*
X76416Y-42303D01*
X76379Y-42340D01*
X76323Y-42359D01*
X76229Y-42359D01*
X76791Y-41965D02*
X76716Y-41965D01*
X76679Y-41984D01*
X76660Y-42003D01*
X76623Y-42059D01*
X76604Y-42134D01*
X76604Y-42284D01*
X76623Y-42321D01*
X76641Y-42340D01*
X76679Y-42359D01*
X76754Y-42359D01*
X76791Y-42340D01*
X76810Y-42321D01*
X76829Y-42284D01*
X76829Y-42190D01*
X76810Y-42153D01*
X76791Y-42134D01*
X76754Y-42115D01*
X76679Y-42115D01*
X76641Y-42134D01*
X76623Y-42153D01*
X76604Y-42190D01*
X72689Y-42299D02*
X72689Y-41905D01*
X72783Y-41905D01*
X72839Y-41924D01*
X72876Y-41961D01*
X72895Y-41999D01*
X72914Y-42074D01*
X72914Y-42130D01*
X72895Y-42205D01*
X72876Y-42243D01*
X72839Y-42280D01*
X72783Y-42299D01*
X72689Y-42299D01*
X73251Y-42036D02*
X73251Y-42299D01*
X73158Y-41886D02*
X73064Y-42168D01*
X73308Y-42168D01*
X76239Y-50909D02*
X76239Y-50515D01*
X76333Y-50515D01*
X76389Y-50534D01*
X76426Y-50571D01*
X76445Y-50609D01*
X76464Y-50684D01*
X76464Y-50740D01*
X76445Y-50815D01*
X76426Y-50853D01*
X76389Y-50890D01*
X76333Y-50909D01*
X76239Y-50909D01*
X76820Y-50515D02*
X76633Y-50515D01*
X76614Y-50703D01*
X76633Y-50684D01*
X76670Y-50665D01*
X76764Y-50665D01*
X76801Y-50684D01*
X76820Y-50703D01*
X76839Y-50740D01*
X76839Y-50834D01*
X76820Y-50871D01*
X76801Y-50890D01*
X76764Y-50909D01*
X76670Y-50909D01*
X76633Y-50890D01*
X76614Y-50871D01*
X72459Y-50939D02*
X72459Y-50545D01*
X72553Y-50545D01*
X72609Y-50564D01*
X72646Y-50601D01*
X72665Y-50639D01*
X72684Y-50714D01*
X72684Y-50770D01*
X72665Y-50845D01*
X72646Y-50883D01*
X72609Y-50920D01*
X72553Y-50939D01*
X72459Y-50939D01*
X72815Y-50545D02*
X73059Y-50545D01*
X72928Y-50695D01*
X72984Y-50695D01*
X73021Y-50714D01*
X73040Y-50733D01*
X73059Y-50770D01*
X73059Y-50864D01*
X73040Y-50901D01*
X73021Y-50920D01*
X72984Y-50939D01*
X72871Y-50939D01*
X72834Y-50920D01*
X72815Y-50901D01*
G54D26*
X54457Y-38883D02*
X54457Y-39450D01*
X54478Y-39516D01*
X54500Y-39550D01*
X54542Y-39583D01*
X54628Y-39583D01*
X54671Y-39550D01*
X54692Y-39516D01*
X54714Y-39450D01*
X54714Y-38883D01*
X54885Y-38883D02*
X55164Y-38883D01*
X55014Y-39150D01*
X55078Y-39150D01*
X55121Y-39183D01*
X55142Y-39216D01*
X55164Y-39283D01*
X55164Y-39450D01*
X55142Y-39516D01*
X55121Y-39550D01*
X55078Y-39583D01*
X54950Y-39583D01*
X54907Y-39550D01*
X54885Y-39516D01*
G54D18*
G54D26*
X59470Y-32512D02*
X59470Y-31912D01*
X59942Y-32455D02*
X59920Y-32484D01*
X59856Y-32512D01*
X59813Y-32512D01*
X59749Y-32484D01*
X59706Y-32427D01*
X59685Y-32370D01*
X59663Y-32255D01*
X59663Y-32170D01*
X59685Y-32055D01*
X59706Y-31998D01*
X59749Y-31941D01*
X59813Y-31912D01*
X59856Y-31912D01*
X59920Y-31941D01*
X59942Y-31970D01*
X60370Y-32512D02*
X60113Y-32512D01*
X60242Y-32512D02*
X60242Y-31912D01*
X60199Y-31998D01*
X60156Y-32055D01*
X60113Y-32084D01*
G54D18*
G54D13*
X46734Y-48259D02*
X46546Y-48259D01*
X46546Y-47865D01*
X47071Y-48259D02*
X46846Y-48259D01*
X46959Y-48259D02*
X46959Y-47865D01*
X46921Y-47921D01*
X46884Y-47959D01*
X46846Y-47978D01*
G54D22*
X40392Y-34010D02*
X40382Y-34020D01*
X40354Y-34029D01*
X40335Y-34029D01*
X40307Y-34020D01*
X40288Y-34001D01*
X40279Y-33982D01*
X40270Y-33945D01*
X40270Y-33917D01*
X40279Y-33879D01*
X40288Y-33860D01*
X40307Y-33842D01*
X40335Y-33832D01*
X40354Y-33832D01*
X40382Y-33842D01*
X40392Y-33851D01*
X40485Y-34029D02*
X40523Y-34029D01*
X40542Y-34020D01*
X40551Y-34010D01*
X40570Y-33982D01*
X40579Y-33945D01*
X40579Y-33870D01*
X40570Y-33851D01*
X40561Y-33842D01*
X40542Y-33832D01*
X40504Y-33832D01*
X40485Y-33842D01*
X40476Y-33851D01*
X40467Y-33870D01*
X40467Y-33917D01*
X40476Y-33935D01*
X40485Y-33945D01*
X40504Y-33954D01*
X40542Y-33954D01*
X40561Y-33945D01*
X40570Y-33935D01*
X40579Y-33917D01*
X64007Y-38330D02*
X64017Y-38339D01*
X64026Y-38367D01*
X64026Y-38386D01*
X64017Y-38414D01*
X63998Y-38433D01*
X63979Y-38442D01*
X63942Y-38452D01*
X63914Y-38452D01*
X63876Y-38442D01*
X63857Y-38433D01*
X63838Y-38414D01*
X63829Y-38386D01*
X63829Y-38367D01*
X63838Y-38339D01*
X63848Y-38330D01*
X63829Y-38264D02*
X63829Y-38142D01*
X63904Y-38208D01*
X63904Y-38179D01*
X63914Y-38161D01*
X63923Y-38151D01*
X63942Y-38142D01*
X63989Y-38142D01*
X64007Y-38151D01*
X64017Y-38161D01*
X64026Y-38179D01*
X64026Y-38236D01*
X64017Y-38255D01*
X64007Y-38264D01*
X64100Y-40572D02*
X64110Y-40582D01*
X64119Y-40610D01*
X64119Y-40629D01*
X64110Y-40657D01*
X64091Y-40676D01*
X64072Y-40685D01*
X64035Y-40694D01*
X64007Y-40694D01*
X63969Y-40685D01*
X63950Y-40676D01*
X63932Y-40657D01*
X63922Y-40629D01*
X63922Y-40610D01*
X63932Y-40582D01*
X63941Y-40572D01*
X63988Y-40403D02*
X64119Y-40403D01*
X63913Y-40450D02*
X64054Y-40497D01*
X64054Y-40375D01*
X54827Y-37300D02*
X54817Y-37310D01*
X54789Y-37319D01*
X54770Y-37319D01*
X54742Y-37310D01*
X54723Y-37291D01*
X54714Y-37272D01*
X54705Y-37235D01*
X54705Y-37207D01*
X54714Y-37169D01*
X54723Y-37150D01*
X54742Y-37132D01*
X54770Y-37122D01*
X54789Y-37122D01*
X54817Y-37132D01*
X54827Y-37141D01*
X54902Y-37141D02*
X54911Y-37132D01*
X54930Y-37122D01*
X54977Y-37122D01*
X54996Y-37132D01*
X55005Y-37141D01*
X55014Y-37160D01*
X55014Y-37179D01*
X55005Y-37207D01*
X54892Y-37319D01*
X55014Y-37319D01*
X49688Y-43595D02*
X49678Y-43605D01*
X49650Y-43614D01*
X49632Y-43614D01*
X49603Y-43605D01*
X49585Y-43586D01*
X49575Y-43567D01*
X49566Y-43530D01*
X49566Y-43502D01*
X49575Y-43464D01*
X49585Y-43445D01*
X49603Y-43427D01*
X49632Y-43417D01*
X49650Y-43417D01*
X49678Y-43427D01*
X49688Y-43436D01*
X49875Y-43614D02*
X49763Y-43614D01*
X49819Y-43614D02*
X49819Y-43417D01*
X49800Y-43445D01*
X49782Y-43464D01*
X49763Y-43474D01*
X49941Y-43417D02*
X50063Y-43417D01*
X49997Y-43492D01*
X50026Y-43492D01*
X50044Y-43502D01*
X50054Y-43511D01*
X50063Y-43530D01*
X50063Y-43577D01*
X50054Y-43595D01*
X50044Y-43605D01*
X50026Y-43614D01*
X49969Y-43614D01*
X49951Y-43605D01*
X49941Y-43595D01*
X46727Y-35400D02*
X46717Y-35410D01*
X46689Y-35419D01*
X46670Y-35419D01*
X46642Y-35410D01*
X46623Y-35391D01*
X46614Y-35372D01*
X46605Y-35335D01*
X46605Y-35307D01*
X46614Y-35269D01*
X46623Y-35250D01*
X46642Y-35232D01*
X46670Y-35222D01*
X46689Y-35222D01*
X46717Y-35232D01*
X46727Y-35241D01*
X46792Y-35222D02*
X46924Y-35222D01*
X46839Y-35419D01*
X46633Y-36550D02*
X46623Y-36560D01*
X46595Y-36569D01*
X46577Y-36569D01*
X46548Y-36560D01*
X46530Y-36541D01*
X46520Y-36522D01*
X46511Y-36485D01*
X46511Y-36457D01*
X46520Y-36419D01*
X46530Y-36400D01*
X46548Y-36382D01*
X46577Y-36372D01*
X46595Y-36372D01*
X46623Y-36382D01*
X46633Y-36391D01*
X46820Y-36569D02*
X46708Y-36569D01*
X46764Y-36569D02*
X46764Y-36372D01*
X46745Y-36400D01*
X46727Y-36419D01*
X46708Y-36429D01*
X46942Y-36372D02*
X46961Y-36372D01*
X46980Y-36382D01*
X46989Y-36391D01*
X46999Y-36410D01*
X47008Y-36447D01*
X47008Y-36494D01*
X46999Y-36532D01*
X46989Y-36550D01*
X46980Y-36560D01*
X46961Y-36569D01*
X46942Y-36569D01*
X46924Y-36560D01*
X46914Y-36550D01*
X46905Y-36532D01*
X46896Y-36494D01*
X46896Y-36447D01*
X46905Y-36410D01*
X46914Y-36391D01*
X46924Y-36382D01*
X46942Y-36372D01*
X42738Y-37595D02*
X42728Y-37605D01*
X42700Y-37614D01*
X42682Y-37614D01*
X42653Y-37605D01*
X42635Y-37586D01*
X42625Y-37567D01*
X42616Y-37530D01*
X42616Y-37502D01*
X42625Y-37464D01*
X42635Y-37445D01*
X42653Y-37427D01*
X42682Y-37417D01*
X42700Y-37417D01*
X42728Y-37427D01*
X42738Y-37436D01*
X42925Y-37614D02*
X42813Y-37614D01*
X42869Y-37614D02*
X42869Y-37417D01*
X42850Y-37445D01*
X42832Y-37464D01*
X42813Y-37474D01*
X43094Y-37483D02*
X43094Y-37614D01*
X43047Y-37408D02*
X43001Y-37549D01*
X43122Y-37549D01*
X42713Y-38795D02*
X42703Y-38805D01*
X42675Y-38814D01*
X42657Y-38814D01*
X42628Y-38805D01*
X42610Y-38786D01*
X42600Y-38767D01*
X42591Y-38730D01*
X42591Y-38702D01*
X42600Y-38664D01*
X42610Y-38645D01*
X42628Y-38627D01*
X42657Y-38617D01*
X42675Y-38617D01*
X42703Y-38627D01*
X42713Y-38636D01*
X42900Y-38814D02*
X42788Y-38814D01*
X42844Y-38814D02*
X42844Y-38617D01*
X42825Y-38645D01*
X42807Y-38664D01*
X42788Y-38674D01*
X42976Y-38636D02*
X42985Y-38627D01*
X43004Y-38617D01*
X43051Y-38617D01*
X43069Y-38627D01*
X43079Y-38636D01*
X43088Y-38655D01*
X43088Y-38674D01*
X43079Y-38702D01*
X42966Y-38814D01*
X43088Y-38814D01*
X42713Y-41045D02*
X42703Y-41055D01*
X42675Y-41064D01*
X42657Y-41064D01*
X42628Y-41055D01*
X42610Y-41036D01*
X42600Y-41017D01*
X42591Y-40980D01*
X42591Y-40952D01*
X42600Y-40914D01*
X42610Y-40895D01*
X42628Y-40877D01*
X42657Y-40867D01*
X42675Y-40867D01*
X42703Y-40877D01*
X42713Y-40886D01*
X42900Y-41064D02*
X42788Y-41064D01*
X42844Y-41064D02*
X42844Y-40867D01*
X42825Y-40895D01*
X42807Y-40914D01*
X42788Y-40924D01*
X43088Y-41064D02*
X42976Y-41064D01*
X43032Y-41064D02*
X43032Y-40867D01*
X43013Y-40895D01*
X42994Y-40914D01*
X42976Y-40924D01*
X48270Y-49367D02*
X48280Y-49377D01*
X48289Y-49405D01*
X48289Y-49424D01*
X48280Y-49452D01*
X48261Y-49471D01*
X48242Y-49480D01*
X48205Y-49489D01*
X48177Y-49489D01*
X48139Y-49480D01*
X48120Y-49471D01*
X48102Y-49452D01*
X48092Y-49424D01*
X48092Y-49405D01*
X48102Y-49377D01*
X48111Y-49367D01*
X48092Y-49189D02*
X48092Y-49283D01*
X48186Y-49292D01*
X48177Y-49283D01*
X48167Y-49264D01*
X48167Y-49217D01*
X48177Y-49198D01*
X48186Y-49189D01*
X48205Y-49180D01*
X48252Y-49180D01*
X48270Y-49189D01*
X48280Y-49198D01*
X48289Y-49217D01*
X48289Y-49264D01*
X48280Y-49283D01*
X48270Y-49292D01*
X46745Y-49367D02*
X46755Y-49377D01*
X46764Y-49405D01*
X46764Y-49424D01*
X46755Y-49452D01*
X46736Y-49471D01*
X46717Y-49480D01*
X46680Y-49489D01*
X46652Y-49489D01*
X46614Y-49480D01*
X46595Y-49471D01*
X46577Y-49452D01*
X46567Y-49424D01*
X46567Y-49405D01*
X46577Y-49377D01*
X46586Y-49367D01*
X46567Y-49198D02*
X46567Y-49236D01*
X46577Y-49255D01*
X46586Y-49264D01*
X46614Y-49283D01*
X46652Y-49292D01*
X46727Y-49292D01*
X46745Y-49283D01*
X46755Y-49274D01*
X46764Y-49255D01*
X46764Y-49217D01*
X46755Y-49198D01*
X46745Y-49189D01*
X46727Y-49180D01*
X46680Y-49180D01*
X46661Y-49189D01*
X46652Y-49198D01*
X46642Y-49217D01*
X46642Y-49255D01*
X46652Y-49274D01*
X46661Y-49283D01*
X46680Y-49292D01*
X54877Y-35825D02*
X54867Y-35835D01*
X54839Y-35844D01*
X54820Y-35844D01*
X54792Y-35835D01*
X54773Y-35816D01*
X54764Y-35797D01*
X54755Y-35760D01*
X54755Y-35732D01*
X54764Y-35694D01*
X54773Y-35675D01*
X54792Y-35657D01*
X54820Y-35647D01*
X54839Y-35647D01*
X54867Y-35657D01*
X54877Y-35666D01*
X55064Y-35844D02*
X54952Y-35844D01*
X55008Y-35844D02*
X55008Y-35647D01*
X54989Y-35675D01*
X54970Y-35694D01*
X54952Y-35704D01*
G54D13*
X36549Y-50779D02*
X36549Y-50385D01*
X36699Y-50385D01*
X36736Y-50404D01*
X36755Y-50423D01*
X36774Y-50460D01*
X36774Y-50516D01*
X36755Y-50554D01*
X36736Y-50573D01*
X36699Y-50591D01*
X36549Y-50591D01*
X37149Y-50779D02*
X36924Y-50779D01*
X37036Y-50779D02*
X37036Y-50385D01*
X36999Y-50441D01*
X36961Y-50479D01*
X36924Y-50498D01*
X53471Y-49478D02*
X53490Y-49496D01*
X53509Y-49553D01*
X53509Y-49590D01*
X53490Y-49646D01*
X53453Y-49684D01*
X53415Y-49703D01*
X53340Y-49721D01*
X53284Y-49721D01*
X53209Y-49703D01*
X53171Y-49684D01*
X53134Y-49646D01*
X53115Y-49590D01*
X53115Y-49553D01*
X53134Y-49496D01*
X53153Y-49478D01*
X53509Y-49103D02*
X53509Y-49328D01*
X53509Y-49215D02*
X53115Y-49215D01*
X53171Y-49253D01*
X53209Y-49290D01*
X53228Y-49328D01*
X53115Y-48746D02*
X53115Y-48934D01*
X53303Y-48953D01*
X53284Y-48934D01*
X53265Y-48896D01*
X53265Y-48803D01*
X53284Y-48765D01*
X53303Y-48746D01*
X53340Y-48728D01*
X53434Y-48728D01*
X53471Y-48746D01*
X53490Y-48765D01*
X53509Y-48803D01*
X53509Y-48896D01*
X53490Y-48934D01*
X53471Y-48953D01*
G54D16*
X69019Y-50416D02*
X68919Y-50273D01*
X68848Y-50416D02*
X68848Y-50116D01*
X68962Y-50116D01*
X68991Y-50130D01*
X69005Y-50145D01*
X69019Y-50173D01*
X69019Y-50216D01*
X69005Y-50245D01*
X68991Y-50259D01*
X68962Y-50273D01*
X68848Y-50273D01*
X69305Y-50416D02*
X69134Y-50416D01*
X69219Y-50416D02*
X69219Y-50116D01*
X69191Y-50159D01*
X69162Y-50188D01*
X69134Y-50202D01*
X69405Y-50116D02*
X69591Y-50116D01*
X69491Y-50230D01*
X69534Y-50230D01*
X69562Y-50245D01*
X69576Y-50259D01*
X69591Y-50288D01*
X69591Y-50359D01*
X69576Y-50388D01*
X69562Y-50402D01*
X69534Y-50416D01*
X69448Y-50416D01*
X69419Y-50402D01*
X69405Y-50388D01*
X69039Y-52424D02*
X68939Y-52281D01*
X68867Y-52424D02*
X68867Y-52124D01*
X68982Y-52124D01*
X69010Y-52138D01*
X69025Y-52153D01*
X69039Y-52181D01*
X69039Y-52224D01*
X69025Y-52253D01*
X69010Y-52267D01*
X68982Y-52281D01*
X68867Y-52281D01*
X69325Y-52424D02*
X69153Y-52424D01*
X69239Y-52424D02*
X69239Y-52124D01*
X69210Y-52167D01*
X69182Y-52196D01*
X69153Y-52210D01*
X69439Y-52153D02*
X69453Y-52138D01*
X69482Y-52124D01*
X69553Y-52124D01*
X69582Y-52138D01*
X69596Y-52153D01*
X69610Y-52181D01*
X69610Y-52210D01*
X69596Y-52253D01*
X69425Y-52424D01*
X69610Y-52424D01*
G54D13*
X65053Y-48013D02*
X65053Y-47619D01*
X65203Y-47619D01*
X65241Y-47638D01*
X65260Y-47657D01*
X65278Y-47694D01*
X65278Y-47751D01*
X65260Y-47788D01*
X65241Y-47807D01*
X65203Y-47826D01*
X65053Y-47826D01*
X65466Y-48013D02*
X65541Y-48013D01*
X65578Y-47994D01*
X65597Y-47976D01*
X65635Y-47919D01*
X65653Y-47844D01*
X65653Y-47694D01*
X65635Y-47657D01*
X65616Y-47638D01*
X65578Y-47619D01*
X65503Y-47619D01*
X65466Y-47638D01*
X65447Y-47657D01*
X65428Y-47694D01*
X65428Y-47788D01*
X65447Y-47826D01*
X65466Y-47844D01*
X65503Y-47863D01*
X65578Y-47863D01*
X65616Y-47844D01*
X65635Y-47826D01*
X65653Y-47788D01*
G54D10*
X66570Y-31711D02*
X66570Y-32035D01*
X66589Y-32073D01*
X66608Y-32092D01*
X66646Y-32111D01*
X66722Y-32111D01*
X66760Y-32092D01*
X66779Y-32073D01*
X66798Y-32035D01*
X66798Y-31711D01*
X66970Y-31750D02*
X66989Y-31730D01*
X67027Y-31711D01*
X67122Y-31711D01*
X67160Y-31730D01*
X67179Y-31750D01*
X67198Y-31788D01*
X67198Y-31826D01*
X67179Y-31883D01*
X66951Y-32111D01*
X67198Y-32111D01*
M02*
